<svg width="20.000000" height="20.000000" viewBox="0 0 20 20" fill="none" xmlns="http://www.w3.org/2000/svg" xmlns:xlink="http://www.w3.org/1999/xlink">
	<desc>
			Created with Pixso.
	</desc>
	<defs>
		<clipPath id="clip2_1289">
			<rect id="Profile" width="20.000000" height="20.000000" fill="white" fill-opacity="0"/>
		</clipPath>
	</defs>
	<g clip-path="url(#clip2_1289)">
		<path id="Vector" d="M10 1.04199C7.46875 1.04199 5.41699 3.09375 5.41699 5.625C5.41699 8.15625 7.46875 10.209 10 10.209C12.5317 10.209 14.5835 8.15625 14.5835 5.625C14.5835 3.09375 12.5317 1.04199 10 1.04199ZM7.0835 5.625C7.0835 4.01465 8.38916 2.70898 10 2.70898C11.6108 2.70898 12.917 4.01465 12.917 5.625C12.917 7.23633 11.6108 8.54199 10 8.54199C8.38916 8.54199 7.0835 7.23633 7.0835 5.625ZM5.08691 11.042C3.99414 11.042 2.86279 11.5889 2.35645 12.7061C2.06543 13.3477 1.75293 14.21 1.67578 15.1084C1.60596 15.9277 1.9458 16.7822 2.71289 17.2578C3.84082 17.959 6.13379 18.959 10 18.959C13.8667 18.959 16.1597 17.959 17.2876 17.2578C18.0547 16.7822 18.3945 15.9277 18.3242 15.1084C18.2471 14.21 17.9351 13.3477 17.644 12.7061C17.1372 11.5889 16.0063 11.042 14.9136 11.042L5.08691 11.042ZM3.87402 13.3945C4.05762 12.9902 4.50928 12.709 5.08691 12.709L14.9136 12.709C15.4912 12.709 15.9429 12.9902 16.126 13.3945C16.3799 13.9531 16.6094 14.6201 16.6641 15.251C16.688 15.5332 16.5703 15.7422 16.4082 15.8428C15.5503 16.375 13.563 17.292 10 17.292C6.43701 17.292 4.44971 16.375 3.59229 15.8428C3.43018 15.7422 3.3125 15.5332 3.33643 15.251C3.39062 14.6201 3.62061 13.9531 3.87402 13.3945Z" fill="#424551" fill-opacity="1.000000" fill-rule="evenodd"/>
	</g>
</svg>
