<svg width="74" height="13" viewBox="0 0 74 13" fill="none" xmlns="http://www.w3.org/2000/svg">
<path d="M6.75474 0.173835C6.7919 0.10127 6.8956 0.10127 6.93276 0.173834L8.77297 3.76772C8.7875 3.79609 8.81467 3.81583 8.84614 3.82088L12.8328 4.46045C12.9133 4.47337 12.9453 4.572 12.8878 4.62976L10.0385 7.49048C10.016 7.51306 10.0056 7.54501 10.0105 7.57649L10.6342 11.5657C10.6468 11.6462 10.5629 11.7072 10.4902 11.6703L6.88897 9.84443C6.86055 9.83002 6.82695 9.83002 6.79853 9.84443L3.19733 11.6703C3.12462 11.7072 3.04072 11.6462 3.05331 11.5657L3.67698 7.57649C3.68191 7.54501 3.67153 7.51306 3.64904 7.49048L0.799704 4.62976C0.742173 4.572 0.77422 4.47337 0.854715 4.46045L4.84136 3.82088C4.87283 3.81583 4.9 3.79609 4.91453 3.76772L6.75474 0.173835Z" fill="#E9A426"/>
<path d="M21.911 0.173835C21.9481 0.10127 22.0519 0.10127 22.089 0.173834L23.9292 3.76772C23.9437 3.79609 23.9709 3.81583 24.0024 3.82088L27.989 4.46045C28.0695 4.47337 28.1016 4.572 28.044 4.62976L25.1947 7.49048C25.1722 7.51306 25.1618 7.54501 25.1668 7.57649L25.7904 11.5657C25.803 11.6462 25.7191 11.7072 25.6464 11.6703L22.0452 9.84443C22.0168 9.83002 21.9832 9.83002 21.9548 9.84443L18.3536 11.6703C18.2809 11.7072 18.197 11.6462 18.2096 11.5657L18.8332 7.57649C18.8382 7.54501 18.8278 7.51306 18.8053 7.49048L15.956 4.62976C15.8984 4.572 15.9305 4.47337 16.011 4.46045L19.9976 3.82088C20.0291 3.81583 20.0563 3.79609 20.0708 3.76772L21.911 0.173835Z" fill="#E9A426"/>
<path d="M36.911 0.173835C36.9481 0.10127 37.0519 0.10127 37.089 0.173834L38.9292 3.76772C38.9437 3.79609 38.9709 3.81583 39.0024 3.82088L42.989 4.46045C43.0695 4.47337 43.1016 4.572 43.044 4.62976L40.1947 7.49048C40.1722 7.51306 40.1618 7.54501 40.1668 7.57649L40.7904 11.5657C40.803 11.6462 40.7191 11.7072 40.6464 11.6703L37.0452 9.84443C37.0168 9.83002 36.9832 9.83002 36.9548 9.84443L33.3536 11.6703C33.2809 11.7072 33.197 11.6462 33.2096 11.5657L33.8332 7.57649C33.8382 7.54501 33.8278 7.51306 33.8053 7.49048L30.956 4.62976C30.8984 4.572 30.9305 4.47337 31.011 4.46045L34.9976 3.82088C35.0291 3.81583 35.0563 3.79609 35.0708 3.76772L36.911 0.173835Z" fill="#E9A426"/>
<path d="M51.911 0.173835C51.9481 0.10127 52.0519 0.10127 52.089 0.173834L53.9292 3.76772C53.9437 3.79609 53.9709 3.81583 54.0024 3.82088L57.989 4.46045C58.0695 4.47337 58.1016 4.572 58.044 4.62976L55.1947 7.49048C55.1722 7.51306 55.1618 7.54501 55.1668 7.57649L55.7904 11.5657C55.803 11.6462 55.7191 11.7072 55.6464 11.6703L52.0452 9.84443C52.0168 9.83002 51.9832 9.83002 51.9548 9.84443L48.3536 11.6703C48.2809 11.7072 48.197 11.6462 48.2096 11.5657L48.8332 7.57649C48.8382 7.54501 48.8278 7.51306 48.8053 7.49048L45.956 4.62976C45.8984 4.572 45.9305 4.47337 46.011 4.46045L49.9976 3.82088C50.0291 3.81583 50.0563 3.79609 50.0708 3.76772L51.911 0.173835Z" fill="#E9A426"/>
<path d="M66.911 0.173835C66.9481 0.10127 67.0519 0.10127 67.089 0.173834L68.9292 3.76772C68.9437 3.79609 68.9709 3.81583 69.0024 3.82088L72.989 4.46045C73.0695 4.47337 73.1016 4.572 73.044 4.62976L70.1947 7.49048C70.1722 7.51306 70.1618 7.54501 70.1668 7.57649L70.7904 11.5657C70.803 11.6462 70.7191 11.7072 70.6464 11.6703L67.0452 9.84443C67.0168 9.83002 66.9832 9.83002 66.9548 9.84443L63.3536 11.6703C63.2809 11.7072 63.197 11.6462 63.2096 11.5657L63.8332 7.57649C63.8382 7.54501 63.8278 7.51306 63.8053 7.49048L60.956 4.62976C60.8984 4.572 60.9305 4.47337 61.011 4.46045L64.9976 3.82088C65.0291 3.81583 65.0563 3.79609 65.0708 3.76772L66.911 0.173835Z" fill="#CACDD8"/>
</svg>
