<svg width="284.000000" height="284.000000" viewBox="0 0 284 284" fill="none" xmlns="http://www.w3.org/2000/svg" xmlns:xlink="http://www.w3.org/1999/xlink">
	<desc>
			Created with Pixso.
	</desc>
	<defs>
		<clipPath id="clip2234_8803">
			<rect id="circles" width="284.000000" height="284.000000" fill="white" fill-opacity="0"/>
		</clipPath>
	</defs>
	<g opacity="0.200000">
		<g clip-path="url(#clip2234_8803)">
			<path id="Vector" d="M142.098 0C63.5444 0 0 63.5439 0 142.098C0 220.456 63.5444 284.195 142.098 284.195C220.456 284.195 284.195 220.65 284.195 142.098C284 63.5439 220.456 0 142.098 0ZM142.098 275.033C68.6123 275.033 9.16113 215.583 9.16113 142.098C9.16113 68.6123 68.6123 9.16113 142.098 9.16113C215.583 9.16113 275.034 68.6123 275.034 142.098C275.034 215.388 215.388 275.033 142.098 275.033Z" fill="#FFFFFF" fill-opacity="1.000000" fill-rule="nonzero"/>
			<path id="Vector" d="M142.099 30.6025C80.6987 30.6025 30.7988 80.502 30.7988 141.902C30.7988 203.303 80.6987 253.202 142.099 253.202C203.499 253.202 253.398 203.497 253.398 142.098C253.398 80.502 203.499 30.6025 142.099 30.6025ZM142.099 236.244C90.0547 236.244 47.7568 193.946 47.7568 141.902C47.7568 89.8584 90.0547 47.5605 142.099 47.5605C194.143 47.5605 236.44 89.8584 236.44 141.902C236.44 193.946 194.143 236.244 142.099 236.244Z" fill="#FFFFFF" fill-opacity="1.000000" fill-rule="nonzero"/>
			<path id="Vector" d="M142.098 79.5273C107.597 79.5273 79.5283 107.596 79.5283 142.097C79.5283 176.598 107.402 204.667 142.098 204.667C176.599 204.667 204.667 176.598 204.667 142.097C204.473 107.596 176.599 79.5273 142.098 79.5273ZM142.098 175.623C123.581 175.623 108.572 160.614 108.572 142.097C108.572 123.579 123.581 108.57 142.098 108.57C160.616 108.57 175.625 123.579 175.625 142.097C175.625 160.614 160.616 175.623 142.098 175.623Z" fill="#FFFFFF" fill-opacity="1.000000" fill-rule="nonzero"/>
		</g>
	</g>
</svg>
