<svg width="187.000000" height="137.000000" viewBox="0 0 187 137" fill="none" xmlns="http://www.w3.org/2000/svg" xmlns:xlink="http://www.w3.org/1999/xlink">
	<desc>
			Created with Pixso.
	</desc>
	<defs>
		<clipPath id="clip2234_8808">
			<rect id="dots" width="187.000000" height="137.000000" fill="white" fill-opacity="0"/>
		</clipPath>
	</defs>
	<g opacity="0.800000">
		<g clip-path="url(#clip2234_8808)">
			<path id="Vector" d="M5.33545 40.2646C5.33545 41.7842 4.19238 42.9238 2.66797 42.9238C1.14355 42.9238 0 41.7842 0 40.2646C0 38.7451 1.14355 37.6055 2.66797 37.6055C4.19238 37.6055 5.33545 38.8721 5.33545 40.2646Z" fill="#FFFFFF" fill-opacity="1.000000" fill-rule="nonzero"/>
			<path id="Vector" d="M28.0752 40.2646C28.0752 41.7842 26.9321 42.9238 25.4077 42.9238C23.8833 42.9238 22.7397 41.7842 22.7397 40.2646C22.7397 38.7451 23.8833 37.6055 25.4077 37.6055C26.8052 37.6055 28.0752 38.8721 28.0752 40.2646Z" fill="#FFFFFF" fill-opacity="1.000000" fill-rule="nonzero"/>
			<path id="Vector" d="M50.688 40.2646C50.688 41.7842 49.5449 42.9238 48.0205 42.9238C46.4961 42.9238 45.3525 41.7842 45.3525 40.2646C45.3525 38.7451 46.4961 37.6055 48.0205 37.6055C49.5449 37.6055 50.688 38.8721 50.688 40.2646Z" fill="#FFFFFF" fill-opacity="1.000000" fill-rule="nonzero"/>
			<path id="Vector" d="M73.4277 40.2646C73.4277 41.7842 72.2847 42.9238 70.7603 42.9238C69.2358 42.9238 68.0923 41.7842 68.0923 40.2646C68.0923 38.7451 69.2358 37.6055 70.7603 37.6055C72.2847 37.6055 73.4277 38.8721 73.4277 40.2646Z" fill="#FFFFFF" fill-opacity="1.000000" fill-rule="nonzero"/>
			<path id="Vector" d="M96.1675 40.2646C96.1675 41.7842 95.0244 42.9238 93.5 42.9238C91.9756 42.9238 90.832 41.7842 90.832 40.2646C90.832 38.7451 91.9756 37.6055 93.5 37.6055C94.8975 37.6055 96.1675 38.8721 96.1675 40.2646Z" fill="#FFFFFF" fill-opacity="1.000000" fill-rule="nonzero"/>
			<path id="Vector" d="M118.908 40.2646C118.908 41.7842 117.765 42.9238 116.24 42.9238C114.716 42.9238 113.572 41.7842 113.572 40.2646C113.572 38.7451 114.716 37.6055 116.24 37.6055C117.765 37.6055 118.908 38.8721 118.908 40.2646Z" fill="#FFFFFF" fill-opacity="1.000000" fill-rule="nonzero"/>
			<path id="Vector" d="M141.52 40.2646C141.52 41.7842 140.377 42.9238 138.853 42.9238C137.328 42.9238 136.185 41.7842 136.185 40.2646C136.185 38.7451 137.328 37.6055 138.853 37.6055C140.377 37.6055 141.52 38.8721 141.52 40.2646Z" fill="#FFFFFF" fill-opacity="1.000000" fill-rule="nonzero"/>
			<path id="Vector" d="M164.26 40.2646C164.26 41.7842 163.117 42.9238 161.593 42.9238C160.068 42.9238 158.925 41.7842 158.925 40.2646C158.925 38.7451 160.068 37.6055 161.593 37.6055C163.117 37.6055 164.26 38.8721 164.26 40.2646Z" fill="#FFFFFF" fill-opacity="1.000000" fill-rule="nonzero"/>
			<path id="Vector" d="M187 40.2646C187 41.7842 185.857 42.9238 184.333 42.9238C182.808 42.9238 181.665 41.7842 181.665 40.2646C181.665 38.7451 182.808 37.6055 184.333 37.6055C185.73 37.6055 187 38.8721 187 40.2646Z" fill="#FFFFFF" fill-opacity="1.000000" fill-rule="nonzero"/>
			<path id="Vector" d="M5.33545 59.1309C5.33545 60.6504 4.19238 61.79 2.66797 61.79C1.14355 61.79 0 60.6504 0 59.1309C0 57.6113 1.14355 56.4717 2.66797 56.4717C4.19238 56.4717 5.33545 57.6113 5.33545 59.1309Z" fill="#FFFFFF" fill-opacity="1.000000" fill-rule="nonzero"/>
			<path id="Vector" d="M28.0752 59.1309C28.0752 60.6504 26.9321 61.79 25.4077 61.79C23.8833 61.79 22.7397 60.6504 22.7397 59.1309C22.7397 57.6113 23.8833 56.4717 25.4077 56.4717C26.8052 56.4717 28.0752 57.6113 28.0752 59.1309Z" fill="#FFFFFF" fill-opacity="1.000000" fill-rule="nonzero"/>
			<path id="Vector" d="M50.688 59.1309C50.688 60.6504 49.5449 61.79 48.0205 61.79C46.4961 61.79 45.3525 60.6504 45.3525 59.1309C45.3525 57.6113 46.4961 56.4717 48.0205 56.4717C49.5449 56.4717 50.688 57.6113 50.688 59.1309Z" fill="#FFFFFF" fill-opacity="1.000000" fill-rule="nonzero"/>
			<path id="Vector" d="M73.4277 59.1309C73.4277 60.6504 72.2847 61.79 70.7603 61.79C69.2358 61.79 68.0923 60.6504 68.0923 59.1309C68.0923 57.6113 69.2358 56.4717 70.7603 56.4717C72.2847 56.4717 73.4277 57.6113 73.4277 59.1309Z" fill="#FFFFFF" fill-opacity="1.000000" fill-rule="nonzero"/>
			<path id="Vector" d="M96.1675 59.1309C96.1675 60.6504 95.0244 61.79 93.5 61.79C91.9756 61.79 90.832 60.6504 90.832 59.1309C90.832 57.6113 91.9756 56.4717 93.5 56.4717C94.8975 56.4717 96.1675 57.6113 96.1675 59.1309Z" fill="#FFFFFF" fill-opacity="1.000000" fill-rule="nonzero"/>
			<path id="Vector" d="M118.908 59.1309C118.908 60.6504 117.765 61.79 116.24 61.79C114.716 61.79 113.572 60.6504 113.572 59.1309C113.572 57.6113 114.716 56.4717 116.24 56.4717C117.765 56.4717 118.908 57.6113 118.908 59.1309Z" fill="#FFFFFF" fill-opacity="1.000000" fill-rule="nonzero"/>
			<path id="Vector" d="M141.52 59.1309C141.52 60.6504 140.377 61.79 138.853 61.79C137.328 61.79 136.185 60.6504 136.185 59.1309C136.185 57.6113 137.328 56.4717 138.853 56.4717C140.377 56.4717 141.52 57.6113 141.52 59.1309Z" fill="#FFFFFF" fill-opacity="1.000000" fill-rule="nonzero"/>
			<path id="Vector" d="M164.26 59.1309C164.26 60.6504 163.117 61.79 161.593 61.79C160.068 61.79 158.925 60.6504 158.925 59.1309C158.925 57.6113 160.068 56.4717 161.593 56.4717C163.117 56.4717 164.26 57.6113 164.26 59.1309Z" fill="#FFFFFF" fill-opacity="1.000000" fill-rule="nonzero"/>
			<path id="Vector" d="M187 59.1309C187 60.6504 185.857 61.79 184.333 61.79C182.808 61.79 181.665 60.6504 181.665 59.1309C181.665 57.6113 182.808 56.4717 184.333 56.4717C185.73 56.4717 187 57.6113 187 59.1309Z" fill="#FFFFFF" fill-opacity="1.000000" fill-rule="nonzero"/>
			<path id="Vector" d="M5.33545 2.65918C5.33545 4.17871 4.19238 5.31836 2.66797 5.31836C1.14355 5.31836 0 4.17871 0 2.65918C0 1.13965 1.14355 0 2.66797 0C4.19238 0 5.33545 1.13965 5.33545 2.65918Z" fill="#FFFFFF" fill-opacity="1.000000" fill-rule="nonzero"/>
			<path id="Vector" d="M28.0752 2.65918C28.0752 4.17871 26.9321 5.31836 25.4077 5.31836C23.8833 5.31836 22.7397 4.17871 22.7397 2.65918C22.7397 1.13965 23.8833 0 25.4077 0C26.8052 0 28.0752 1.13965 28.0752 2.65918Z" fill="#FFFFFF" fill-opacity="1.000000" fill-rule="nonzero"/>
			<path id="Vector" d="M50.688 2.65918C50.688 4.17871 49.5449 5.31836 48.0205 5.31836C46.4961 5.31836 45.3525 4.17871 45.3525 2.65918C45.3525 1.13965 46.623 0 48.0205 0C49.5449 0 50.688 1.13965 50.688 2.65918Z" fill="#FFFFFF" fill-opacity="1.000000" fill-rule="nonzero"/>
			<path id="Vector" d="M73.4277 2.65918C73.4277 4.17871 72.2847 5.31836 70.7603 5.31836C69.2358 5.31836 68.0923 4.17871 68.0923 2.65918C68.0923 1.13965 69.3628 0 70.7603 0C72.1577 0 73.4277 1.13965 73.4277 2.65918Z" fill="#FFFFFF" fill-opacity="1.000000" fill-rule="nonzero"/>
			<path id="Vector" d="M96.1675 2.65918C96.1675 4.17871 95.0244 5.31836 93.5 5.31836C91.9756 5.31836 90.832 4.17871 90.832 2.65918C90.832 1.13965 91.9756 0 93.5 0C94.8975 0 96.1675 1.13965 96.1675 2.65918Z" fill="#FFFFFF" fill-opacity="1.000000" fill-rule="nonzero"/>
			<path id="Vector" d="M118.908 2.65918C118.908 4.17871 117.765 5.31836 116.24 5.31836C114.716 5.31836 113.572 4.17871 113.572 2.65918C113.572 1.13965 114.716 0 116.24 0C117.765 0 118.908 1.13965 118.908 2.65918Z" fill="#FFFFFF" fill-opacity="1.000000" fill-rule="nonzero"/>
			<path id="Vector" d="M141.52 2.65918C141.52 4.17871 140.377 5.31836 138.853 5.31836C137.328 5.31836 136.185 4.17871 136.185 2.65918C136.185 1.13965 137.328 0 138.853 0C140.377 0 141.52 1.13965 141.52 2.65918Z" fill="#FFFFFF" fill-opacity="1.000000" fill-rule="nonzero"/>
			<path id="Vector" d="M164.26 2.65918C164.26 4.17871 163.117 5.31836 161.593 5.31836C160.068 5.31836 158.925 4.17871 158.925 2.65918C158.925 1.13965 160.068 0 161.593 0C163.117 0 164.26 1.13965 164.26 2.65918Z" fill="#FFFFFF" fill-opacity="1.000000" fill-rule="nonzero"/>
			<path id="Vector" d="M187 2.65918C187 4.17871 185.857 5.31836 184.333 5.31836C182.808 5.31836 181.665 4.17871 181.665 2.65918C181.665 1.13965 182.808 0 184.333 0C185.73 0 187 1.13965 187 2.65918Z" fill="#FFFFFF" fill-opacity="1.000000" fill-rule="nonzero"/>
			<path id="Vector" d="M5.33545 21.5254C5.33545 23.0449 4.19238 24.1846 2.66797 24.1846C1.14355 24.1846 0 22.918 0 21.5254C0 20.0059 1.14355 18.8662 2.66797 18.8662C4.19238 18.8662 5.33545 20.0059 5.33545 21.5254Z" fill="#FFFFFF" fill-opacity="1.000000" fill-rule="nonzero"/>
			<path id="Vector" d="M28.0752 21.5254C28.0752 23.0449 26.9321 24.1846 25.4077 24.1846C23.8833 24.1846 22.7397 23.0449 22.7397 21.5254C22.7397 20.0059 23.8833 18.8662 25.4077 18.8662C26.8052 18.8662 28.0752 20.0059 28.0752 21.5254Z" fill="#FFFFFF" fill-opacity="1.000000" fill-rule="nonzero"/>
			<path id="Vector" d="M50.688 21.5254C50.688 23.0449 49.5449 24.1846 48.0205 24.1846C46.4961 24.1846 45.3525 23.0449 45.3525 21.5254C45.3525 20.0059 46.4961 18.8662 48.0205 18.8662C49.5449 18.8662 50.688 20.0059 50.688 21.5254Z" fill="#FFFFFF" fill-opacity="1.000000" fill-rule="nonzero"/>
			<path id="Vector" d="M73.4277 21.5254C73.4277 23.0449 72.2847 24.1846 70.7603 24.1846C69.2358 24.1846 68.0923 23.0449 68.0923 21.5254C68.0923 20.0059 69.2358 18.8662 70.7603 18.8662C72.2847 18.8662 73.4277 20.0059 73.4277 21.5254Z" fill="#FFFFFF" fill-opacity="1.000000" fill-rule="nonzero"/>
			<path id="Vector" d="M96.1675 21.5254C96.1675 23.0449 95.0244 24.1846 93.5 24.1846C91.9756 24.1846 90.832 23.0449 90.832 21.5254C90.832 20.0059 91.9756 18.8662 93.5 18.8662C94.8975 18.8662 96.1675 20.0059 96.1675 21.5254Z" fill="#FFFFFF" fill-opacity="1.000000" fill-rule="nonzero"/>
			<path id="Vector" d="M118.908 21.5254C118.908 23.0449 117.765 24.1846 116.24 24.1846C114.716 24.1846 113.572 23.0449 113.572 21.5254C113.572 20.0059 114.716 18.8662 116.24 18.8662C117.765 18.8662 118.908 20.0059 118.908 21.5254Z" fill="#FFFFFF" fill-opacity="1.000000" fill-rule="nonzero"/>
			<path id="Vector" d="M141.52 21.5254C141.52 23.0449 140.377 24.1846 138.853 24.1846C137.328 24.1846 136.185 23.0449 136.185 21.5254C136.185 20.0059 137.328 18.8662 138.853 18.8662C140.377 18.8662 141.52 20.0059 141.52 21.5254Z" fill="#FFFFFF" fill-opacity="1.000000" fill-rule="nonzero"/>
			<path id="Vector" d="M164.26 21.5254C164.26 23.0449 163.117 24.1846 161.593 24.1846C160.068 24.1846 158.925 23.0449 158.925 21.5254C158.925 20.0059 160.068 18.8662 161.593 18.8662C163.117 18.8662 164.26 20.0059 164.26 21.5254Z" fill="#FFFFFF" fill-opacity="1.000000" fill-rule="nonzero"/>
			<path id="Vector" d="M187 21.5254C187 23.0449 185.857 24.1846 184.333 24.1846C182.808 24.1846 181.665 23.0449 181.665 21.5254C181.665 20.0059 182.808 18.8662 184.333 18.8662C185.73 18.8662 187 20.0059 187 21.5254Z" fill="#FFFFFF" fill-opacity="1.000000" fill-rule="nonzero"/>
			<path id="Vector" d="M5.33545 77.8701C5.33545 79.3896 4.19238 80.5293 2.66797 80.5293C1.14355 80.5293 0 79.3896 0 77.8701C0 76.3506 1.14355 75.2109 2.66797 75.2109C4.19238 75.2109 5.33545 76.4775 5.33545 77.8701Z" fill="#FFFFFF" fill-opacity="1.000000" fill-rule="nonzero"/>
			<path id="Vector" d="M28.0752 77.8701C28.0752 79.3896 26.9321 80.5293 25.4077 80.5293C23.8833 80.5293 22.7397 79.3896 22.7397 77.8701C22.7397 76.3506 23.8833 75.2109 25.4077 75.2109C26.8052 75.2109 28.0752 76.4775 28.0752 77.8701Z" fill="#FFFFFF" fill-opacity="1.000000" fill-rule="nonzero"/>
			<path id="Vector" d="M50.688 77.8701C50.688 79.3896 49.5449 80.5293 48.0205 80.5293C46.4961 80.5293 45.3525 79.3896 45.3525 77.8701C45.3525 76.3506 46.4961 75.2109 48.0205 75.2109C49.5449 75.2109 50.688 76.4775 50.688 77.8701Z" fill="#FFFFFF" fill-opacity="1.000000" fill-rule="nonzero"/>
			<path id="Vector" d="M73.4277 77.8701C73.4277 79.3896 72.2847 80.5293 70.7603 80.5293C69.2358 80.5293 68.0923 79.3896 68.0923 77.8701C68.0923 76.3506 69.2358 75.2109 70.7603 75.2109C72.2847 75.2109 73.4277 76.4775 73.4277 77.8701Z" fill="#FFFFFF" fill-opacity="1.000000" fill-rule="nonzero"/>
			<path id="Vector" d="M96.1675 77.8701C96.1675 79.3896 95.0244 80.5293 93.5 80.5293C91.9756 80.5293 90.832 79.3896 90.832 77.8701C90.832 76.3506 91.9756 75.2109 93.5 75.2109C94.8975 75.2109 96.1675 76.4775 96.1675 77.8701Z" fill="#FFFFFF" fill-opacity="1.000000" fill-rule="nonzero"/>
			<path id="Vector" d="M118.908 77.8701C118.908 79.3896 117.765 80.5293 116.24 80.5293C114.716 80.5293 113.572 79.3896 113.572 77.8701C113.572 76.3506 114.716 75.2109 116.24 75.2109C117.765 75.2109 118.908 76.4775 118.908 77.8701Z" fill="#FFFFFF" fill-opacity="1.000000" fill-rule="nonzero"/>
			<path id="Vector" d="M141.52 77.8701C141.52 79.3896 140.377 80.5293 138.853 80.5293C137.328 80.5293 136.185 79.3896 136.185 77.8701C136.185 76.3506 137.328 75.2109 138.853 75.2109C140.377 75.2109 141.52 76.4775 141.52 77.8701Z" fill="#FFFFFF" fill-opacity="1.000000" fill-rule="nonzero"/>
			<path id="Vector" d="M164.26 77.8701C164.26 79.3896 163.117 80.5293 161.593 80.5293C160.068 80.5293 158.925 79.3896 158.925 77.8701C158.925 76.3506 160.068 75.2109 161.593 75.2109C163.117 75.2109 164.26 76.4775 164.26 77.8701Z" fill="#FFFFFF" fill-opacity="1.000000" fill-rule="nonzero"/>
			<path id="Vector" d="M187 77.8701C187 79.3896 185.857 80.5293 184.333 80.5293C182.808 80.5293 181.665 79.3896 181.665 77.8701C181.665 76.3506 182.808 75.2109 184.333 75.2109C185.73 75.2109 187 76.4775 187 77.8701Z" fill="#FFFFFF" fill-opacity="1.000000" fill-rule="nonzero"/>
			<path id="Vector" d="M5.33545 96.7354C5.33545 98.2549 4.19238 99.3945 2.66797 99.3945C1.14355 99.3945 0 98.2549 0 96.7354C0 95.2158 1.14355 94.0762 2.66797 94.0762C4.19238 94.0762 5.33545 95.2158 5.33545 96.7354Z" fill="#FFFFFF" fill-opacity="1.000000" fill-rule="nonzero"/>
			<path id="Vector" d="M28.0752 96.7354C28.0752 98.2549 26.9321 99.3945 25.4077 99.3945C23.8833 99.3945 22.7397 98.2549 22.7397 96.7354C22.7397 95.2158 23.8833 94.0762 25.4077 94.0762C26.8052 94.0762 28.0752 95.2158 28.0752 96.7354Z" fill="#FFFFFF" fill-opacity="1.000000" fill-rule="nonzero"/>
			<path id="Vector" d="M50.688 96.7354C50.688 98.2549 49.5449 99.3945 48.0205 99.3945C46.4961 99.3945 45.3525 98.2549 45.3525 96.7354C45.3525 95.2158 46.4961 94.0762 48.0205 94.0762C49.5449 94.0762 50.688 95.2158 50.688 96.7354Z" fill="#FFFFFF" fill-opacity="1.000000" fill-rule="nonzero"/>
			<path id="Vector" d="M73.4277 96.7354C73.4277 98.2041 72.2334 99.3945 70.7603 99.3945C69.2866 99.3945 68.0923 98.2041 68.0923 96.7354C68.0923 95.2666 69.2866 94.0762 70.7603 94.0762C72.2334 94.0762 73.4277 95.2666 73.4277 96.7354Z" fill="#FFFFFF" fill-opacity="1.000000" fill-rule="evenodd"/>
			<path id="Vector" d="M96.1675 96.7354C96.1675 98.2549 95.0244 99.3945 93.5 99.3945C91.9756 99.3945 90.832 98.2549 90.832 96.7354C90.832 95.2158 91.9756 94.0762 93.5 94.0762C94.8975 94.0762 96.1675 95.2158 96.1675 96.7354Z" fill="#FFFFFF" fill-opacity="1.000000" fill-rule="nonzero"/>
			<path id="Vector" d="M118.908 96.7354C118.908 98.2549 117.765 99.3945 116.24 99.3945C114.716 99.3945 113.572 98.2549 113.572 96.7354C113.572 95.2158 114.716 94.0762 116.24 94.0762C117.765 94.0762 118.908 95.2158 118.908 96.7354Z" fill="#FFFFFF" fill-opacity="1.000000" fill-rule="nonzero"/>
			<path id="Vector" d="M141.52 96.7354C141.52 98.2549 140.377 99.3945 138.853 99.3945C137.328 99.3945 136.185 98.2549 136.185 96.7354C136.185 95.2158 137.328 94.0762 138.853 94.0762C140.377 94.0762 141.52 95.2158 141.52 96.7354Z" fill="#FFFFFF" fill-opacity="1.000000" fill-rule="nonzero"/>
			<path id="Vector" d="M164.26 96.7354C164.26 98.2041 163.066 99.3945 161.593 99.3945C160.119 99.3945 158.925 98.2041 158.925 96.7354C158.925 95.2666 160.119 94.0762 161.593 94.0762C163.066 94.0762 164.26 95.2666 164.26 96.7354Z" fill="#FFFFFF" fill-opacity="1.000000" fill-rule="evenodd"/>
			<path id="Vector" d="M187 96.7354C187 98.2549 185.857 99.3945 184.333 99.3945C182.808 99.3945 181.665 98.2549 181.665 96.7354C181.665 95.2158 182.808 94.0762 184.333 94.0762C185.73 94.0762 187 95.2158 187 96.7354Z" fill="#FFFFFF" fill-opacity="1.000000" fill-rule="nonzero"/>
			<path id="Vector" d="M5.33545 115.602C5.33545 117.121 4.19238 118.261 2.66797 118.261C1.14355 118.261 0 117.121 0 115.602C0 114.082 1.14355 112.942 2.66797 112.942C4.19238 112.942 5.33545 114.082 5.33545 115.602Z" fill="#FFFFFF" fill-opacity="1.000000" fill-rule="nonzero"/>
			<path id="Vector" d="M28.0752 115.602C28.0752 117.121 26.9321 118.261 25.4077 118.261C23.8833 118.261 22.7397 117.121 22.7397 115.602C22.7397 114.082 23.8833 112.942 25.4077 112.942C26.8052 112.942 28.0752 114.082 28.0752 115.602Z" fill="#FFFFFF" fill-opacity="1.000000" fill-rule="nonzero"/>
			<path id="Vector" d="M50.688 115.602C50.688 117.121 49.5449 118.261 48.0205 118.261C46.4961 118.261 45.3525 117.121 45.3525 115.602C45.3525 114.082 46.4961 112.942 48.0205 112.942C49.5449 112.942 50.688 114.082 50.688 115.602Z" fill="#FFFFFF" fill-opacity="1.000000" fill-rule="nonzero"/>
			<path id="Vector" d="M73.4277 115.602C73.4277 117.121 72.2847 118.261 70.7603 118.261C69.2358 118.261 68.0923 117.121 68.0923 115.602C68.0923 114.082 69.2358 112.942 70.7603 112.942C72.2847 112.942 73.4277 114.082 73.4277 115.602Z" fill="#FFFFFF" fill-opacity="1.000000" fill-rule="nonzero"/>
			<path id="Vector" d="M96.1675 115.602C96.1675 117.121 95.0244 118.261 93.5 118.261C91.9756 118.261 90.832 117.121 90.832 115.602C90.832 114.082 91.9756 112.942 93.5 112.942C94.8975 112.942 96.1675 114.082 96.1675 115.602Z" fill="#FFFFFF" fill-opacity="1.000000" fill-rule="nonzero"/>
			<path id="Vector" d="M118.908 115.602C118.908 117.121 117.765 118.261 116.24 118.261C114.716 118.261 113.572 117.121 113.572 115.602C113.572 114.082 114.716 112.942 116.24 112.942C117.765 112.942 118.908 114.082 118.908 115.602Z" fill="#FFFFFF" fill-opacity="1.000000" fill-rule="nonzero"/>
			<path id="Vector" d="M141.52 115.602C141.52 117.121 140.377 118.261 138.853 118.261C137.328 118.261 136.185 117.121 136.185 115.602C136.185 114.082 137.328 112.942 138.853 112.942C140.377 112.942 141.52 114.082 141.52 115.602Z" fill="#FFFFFF" fill-opacity="1.000000" fill-rule="nonzero"/>
			<path id="Vector" d="M164.26 115.602C164.26 117.121 163.117 118.261 161.593 118.261C160.068 118.261 158.925 117.121 158.925 115.602C158.925 114.082 160.068 112.942 161.593 112.942C163.117 112.942 164.26 114.082 164.26 115.602Z" fill="#FFFFFF" fill-opacity="1.000000" fill-rule="nonzero"/>
			<path id="Vector" d="M187 115.602C187 117.121 185.857 118.261 184.333 118.261C182.808 118.261 181.665 117.121 181.665 115.602C181.665 114.082 182.808 112.942 184.333 112.942C185.73 112.942 187 114.082 187 115.602Z" fill="#FFFFFF" fill-opacity="1.000000" fill-rule="nonzero"/>
			<path id="Vector" d="M5.33545 134.341C5.33545 135.86 4.19238 137 2.66797 137C1.14355 137 0 135.86 0 134.341C0 132.821 1.14355 131.682 2.66797 131.682C4.19238 131.682 5.33545 132.948 5.33545 134.341Z" fill="#FFFFFF" fill-opacity="1.000000" fill-rule="nonzero"/>
			<path id="Vector" d="M28.0752 134.341C28.0752 135.86 26.9321 137 25.4077 137C23.8833 137 22.7397 135.86 22.7397 134.341C22.7397 132.821 23.8833 131.682 25.4077 131.682C26.8052 131.682 28.0752 132.948 28.0752 134.341Z" fill="#FFFFFF" fill-opacity="1.000000" fill-rule="nonzero"/>
			<path id="Vector" d="M50.688 134.341C50.688 135.86 49.5449 137 48.0205 137C46.4961 137 45.3525 135.86 45.3525 134.341C45.3525 132.821 46.4961 131.682 48.0205 131.682C49.5449 131.682 50.688 132.948 50.688 134.341Z" fill="#FFFFFF" fill-opacity="1.000000" fill-rule="nonzero"/>
			<path id="Vector" d="M73.4277 134.341C73.4277 135.86 72.2847 137 70.7603 137C69.2358 137 68.0923 135.86 68.0923 134.341C68.0923 132.821 69.2358 131.682 70.7603 131.682C72.2847 131.682 73.4277 132.948 73.4277 134.341Z" fill="#FFFFFF" fill-opacity="1.000000" fill-rule="nonzero"/>
			<path id="Vector" d="M96.1675 134.341C96.1675 135.86 95.0244 137 93.5 137C91.9756 137 90.832 135.86 90.832 134.341C90.832 132.821 91.9756 131.682 93.5 131.682C94.8975 131.682 96.1675 132.948 96.1675 134.341Z" fill="#FFFFFF" fill-opacity="1.000000" fill-rule="nonzero"/>
			<path id="Vector" d="M118.908 134.341C118.908 135.86 117.765 137 116.24 137C114.716 137 113.572 135.86 113.572 134.341C113.572 132.821 114.716 131.682 116.24 131.682C117.765 131.682 118.908 132.948 118.908 134.341Z" fill="#FFFFFF" fill-opacity="1.000000" fill-rule="nonzero"/>
			<path id="Vector" d="M141.52 134.341C141.52 135.86 140.377 137 138.853 137C137.328 137 136.185 135.86 136.185 134.341C136.185 132.821 137.328 131.682 138.853 131.682C140.377 131.682 141.52 132.948 141.52 134.341Z" fill="#FFFFFF" fill-opacity="1.000000" fill-rule="nonzero"/>
			<path id="Vector" d="M164.26 134.341C164.26 135.86 163.117 137 161.593 137C160.068 137 158.925 135.86 158.925 134.341C158.925 132.821 160.068 131.682 161.593 131.682C163.117 131.682 164.26 132.948 164.26 134.341Z" fill="#FFFFFF" fill-opacity="1.000000" fill-rule="nonzero"/>
			<path id="Vector" d="M187 134.341C187 135.86 185.857 137 184.333 137C182.808 137 181.665 135.86 181.665 134.341C181.665 132.821 182.808 131.682 184.333 131.682C185.73 131.682 187 132.948 187 134.341Z" fill="#FFFFFF" fill-opacity="1.000000" fill-rule="nonzero"/>
		</g>
	</g>
</svg>
