<svg width="130.000000" height="22.000000" viewBox="0 0 130 22" fill="none" xmlns="http://www.w3.org/2000/svg" xmlns:xlink="http://www.w3.org/1999/xlink">
	<desc>
			Created with Pixso.
	</desc>
	<defs>
		<clipPath id="clip4_1366">
			<rect id="logo" width="130.000000" height="21.999998" fill="white" fill-opacity="0"/>
		</clipPath>
	</defs>
	<g clip-path="url(#clip4_1366)">
		<path id="Vector" d="M0 11.0996C0 5 3.2998 1.2998 8.7002 1.2998C12.7998 1.2998 16.1001 3.7998 16.7002 7.5C16.7998 7.89941 16.5 8.2002 16.1001 8.2002L13.5 8.2002C13.2002 8.2002 13 8 12.8999 7.7002C12.3999 5.7998 10.7998 4.59961 8.7002 4.59961C5.7998 4.59961 4 7.09961 4 11.0996C4 15.0996 5.7998 17.5996 8.7998 17.5996C10.8999 17.5996 12.3999 16.5 13 14.7002C13.1001 14.3994 13.2998 14.2002 13.6001 14.2002L16.2002 14.2002C16.6001 14.2002 16.8999 14.5996 16.7998 14.8994C16.2002 18.5 13 20.8994 8.7998 20.8994C3.2998 20.8994 0 17.0996 0 11.0996ZM79 19.7002L79 5.5C79 5.2002 78.8003 5 78.5 5L74.1001 5C73.7002 5 73.3003 4.7002 73.3003 4.2002L73.3003 2.5C73.3003 2.10059 73.6001 1.7002 74.1001 1.7002L87.7002 1.7002C88.1001 1.7002 88.5 2 88.5 2.5L88.5 4.2002C88.5 4.60059 88.2002 5 87.7002 5L83.3003 5C83 5 82.8003 5.2002 82.8003 5.5L82.8003 19.8008C82.8003 20.2002 82.5 20.5 82.1001 20.5L79.6001 20.5C79.3003 20.4004 79 20.1006 79 19.7002ZM21.3994 20.4004L24.2998 20.4004C24.5996 20.4004 24.8994 20.2002 24.7998 20L24.7998 14.0996C24.7998 13.7998 24.9995 13.5996 25.2998 13.5996L27.5996 13.5996C27.8994 13.5996 28.1997 13.7002 28.2998 14L31.1997 20C31.2998 20.2002 31.4995 20.2998 31.6997 20.2998L34.9995 20.2998C35.2998 20.2998 35.5996 19.9004 35.3994 19.5996L32.2998 13.7002C32.0996 13.4004 32.1997 12.9004 32.5996 12.7002C34.2998 11.7002 35.2998 9.7998 35.2998 7.7002C35.2998 4.09961 32.7998 1.7998 28.6997 1.7998L21.6997 1.7998C21.2998 1.7998 20.8994 2.2002 20.8994 2.59961L20.8994 19.9004C20.8994 20.2002 21.0996 20.4004 21.3994 20.4004ZM51.5 20.4004L40.5 20.4004C40.0996 20.4004 39.7998 20.0996 39.7998 19.7002L39.7998 2.5C39.7998 2.09961 40.0996 1.7998 40.5 1.7998L51.5 1.7998C51.8999 1.7998 52.1997 2.09961 52.1997 2.5L52.1997 4.40039C52.1997 4.7998 51.8999 5.09961 51.5 5.09961L44.1997 5.09961C43.8999 5.09961 43.6997 5.2998 43.6997 5.59961L43.6997 9C43.6997 9.2998 43.8999 9.5 44.1997 9.5L51 9.5C51.3999 9.5 51.6997 9.7998 51.6997 10.2002L51.6997 11.9004C51.6997 12.2998 51.3999 12.5996 51 12.5996L44.1997 12.5996C43.8999 12.5996 43.6997 12.7998 43.6997 13.0996L43.6997 16.9004C43.6997 17.2002 43.8999 17.4004 44.1997 17.4004L51.5 17.4004C51.8999 17.4004 52.1997 17.7002 52.1997 18.0996L52.1997 20C52.1997 20.0996 51.8999 20.4004 51.5 20.4004ZM61.2998 15.9004L67 15.9004C67.1997 15.9004 67.5 16.0996 67.5 16.2998L68.6001 20C68.6997 20.2002 68.8999 20.4004 69.1997 20.4004L72.1001 20.4004C72.5 20.4004 72.7998 20 72.6997 19.5996L66.6997 2.2002C66.6001 2 66.3999 1.7998 66.1001 1.7998L62.3999 1.7998C62.1001 1.7998 61.8999 2 61.7998 2.2002L55.7998 19.5996C55.6997 20 56 20.4004 56.3999 20.4004L59 20.4004C59.2998 20.4004 59.5 20.2998 59.6001 20L60.6997 16.2998C60.7998 16.0996 61 15.9004 61.2998 15.9004ZM92.7998 20.4004L103.8 20.4004C104.2 20.4004 104.5 20.0996 104.5 20L104.5 18.0996C104.5 17.7002 104.2 17.4004 103.8 17.4004L96.5 17.4004C96.1997 17.4004 96 17.2002 96 16.9004L96 13.0996C96 12.7998 96.1997 12.5996 96.5 12.5996L103.3 12.5996C103.7 12.5996 104 12.2998 104 11.9004L104 10.2002C104 9.7998 103.7 9.5 103.3 9.5L96.5 9.5C96.1997 9.5 96 9.2998 96 9L96 5.59961C96 5.2998 96.1997 5.09961 96.5 5.09961L103.8 5.09961C104.2 5.09961 104.5 4.7998 104.5 4.40039L104.5 2.5C104.5 2.09961 104.2 1.7998 103.8 1.7998L92.7998 1.7998C92.3999 1.7998 92.1001 2.09961 92.1001 2.5L92.1001 19.7002C92.1001 20.0996 92.3999 20.4004 92.7998 20.4004ZM25.3994 10.7002C25.0996 10.7002 24.8994 10.5 24.8994 10.2002L24.9995 10.2002L24.9995 5.40039C24.9995 5.09961 25.1997 4.90039 25.4995 4.90039L28.3994 4.90039C30.2998 4.90039 31.4995 6 31.4995 7.7998C31.4995 9.59961 30.3994 10.7002 28.3994 10.7002L25.3994 10.7002ZM66.1997 13L62.1001 13C61.8999 13 61.7998 12.7998 61.8999 12.5996L64.1001 5.59961L64.2998 5.59961L66.5 12.5996C66.5 12.7998 66.3999 13 66.1997 13Z" fill="#1E212C" fill-opacity="1.000000" fill-rule="evenodd"/>
		<path id="Vector" d="M111.5 1.59961L117.7 9.7002C118.4 10.5 118.4 11.7002 117.7 12.2998L111.5 20.4004C111.1 20.7998 110.6 21 110.1 21C109.6 21 109.1 20.7998 108.7 20.4004C108 19.5996 108 18.4004 108.7 17.5996L113.6 11L108.7 4.40039C108 3.59961 108 2.40039 108.7 1.59961C109.1 1.2002 109.6 1 110.1 1C110.6 1 111.1 1.2002 111.5 1.59961ZM126.542 1.59961L120.343 9.7002C119.643 10.5 119.643 11.7002 120.343 12.2998L126.542 20.4004C126.942 20.7998 127.442 21 127.942 21C128.442 21 128.942 20.7998 129.343 20.4004C130.042 19.5996 130.042 18.4004 129.343 17.5996L124.442 11L129.343 4.40039C130.042 3.59961 130.042 2.40039 129.343 1.59961C128.942 1.2002 128.442 1 127.942 1C127.442 1 126.942 1.2002 126.542 1.59961Z" fill="#FF3F3A" fill-opacity="1.000000" fill-rule="evenodd"/>
	</g>
</svg>
