<svg width="12.000000" height="12.002075" viewBox="0 0 12 12.0021" fill="none" xmlns="http://www.w3.org/2000/svg" xmlns:xlink="http://www.w3.org/1999/xlink">
	<desc>
			Created with Pixso.
	</desc>
	<defs/>
	<path id="Vector" d="M11.8369 10.3765L9.5 8.03967C9.39453 7.9342 9.25098 7.87555 9.10156 7.87555L8.71973 7.87555C9.36621 7.04816 9.75098 6.00745 9.75098 4.87537C9.75098 2.18219 7.56836 0 4.875 0C2.18262 0 0 2.18219 0 4.87537C0 7.56854 2.18262 9.75073 4.875 9.75073C6.00781 9.75073 7.04785 9.36633 7.87598 8.71936L7.87598 9.10144C7.87598 9.25146 7.93457 9.39441 8.04004 9.49994L10.377 11.8368C10.5967 12.0571 10.9531 12.0571 11.1709 11.8368L11.834 11.1735C12.0547 10.9531 12.0547 10.5969 11.8369 10.3765ZM4.875 7.87555C3.21777 7.87555 1.875 6.53485 1.875 4.87537C1.875 3.2182 3.21582 1.87512 4.875 1.87512C6.53223 1.87512 7.87598 3.21588 7.87598 4.87537C7.87598 6.53253 6.53516 7.87555 4.875 7.87555Z" fill="#F8F9FA" fill-opacity="0.500000" fill-rule="nonzero"/>
</svg>
