<svg width="602.000000" height="551.000977" viewBox="0 0 602 551.001" fill="none" xmlns="http://www.w3.org/2000/svg" xmlns:xlink="http://www.w3.org/1999/xlink">
	<desc>
			Created with Pixso.
	</desc>
	<defs/>
	<rect id="illustration" width="602.000000" height="551.000000" fill="#FFFFFF" fill-opacity="0"/>
	<path id="Vector" d="M378.302 15.918L420.208 56.3535L462.326 284.295L67.2539 284.295L378.302 15.918Z" fill="#FFCF2D" fill-opacity="1.000000" fill-rule="nonzero"/>
	<path id="Vector" d="M420.568 56.0361L378.534 15.4736L385.564 8.16992C395.919 -2.58496 414.575 -1.35742 425.332 8.97461C436.089 19.3262 437.974 37.9775 427.619 48.7324L420.568 56.0361Z" fill="#FFFFFF" fill-opacity="1.000000" fill-rule="nonzero"/>
	<path id="Vector" d="M420.589 56.9248L377.645 15.4941L385.12 7.72461C390.16 2.47461 397.338 -0.255859 405.343 0.0185547C413.008 0.293945 420.462 3.38477 425.798 8.50781C431.134 13.6318 434.501 20.9775 435.052 28.6416C435.624 36.623 433.146 43.9053 428.106 49.1553L420.589 56.9248ZM379.424 15.4521L420.547 55.126L427.153 48.2871C431.96 43.3125 434.29 36.3682 433.76 28.7471C433.231 21.3799 430.012 14.3516 424.888 9.43945C419.763 4.52832 412.627 1.56445 405.279 1.31055C397.656 1.03516 390.816 3.63867 386.03 8.61426L379.424 15.4521Z" fill="#FFCF2D" fill-opacity="1.000000" fill-rule="nonzero"/>
	<path id="Vector" d="M427.599 49.3672C427.429 49.3672 427.281 49.3037 427.154 49.1973L385.099 8.63477C384.845 8.38086 384.845 8 385.078 7.74609C385.332 7.49219 385.734 7.49219 385.967 7.72461L428.022 48.2871C428.276 48.541 428.276 48.9229 428.043 49.1768C427.938 49.3037 427.768 49.3672 427.599 49.3672Z" fill="#FFCF2D" fill-opacity="1.000000" fill-rule="nonzero"/>
	<path id="Vector" d="M508.828 283.194C508.743 283.194 508.658 283.173 508.574 283.131C508.256 282.982 508.108 282.602 508.256 282.284L567.23 150.773L451.929 10.4561L451.929 10.4346C449.748 7.4707 446.55 5.56543 442.908 5.03613C439.266 4.50684 435.645 5.45996 432.723 7.7041L428.021 11.3027C427.747 11.5146 427.344 11.4717 427.132 11.1758C426.92 10.9004 426.963 10.498 427.259 10.2861L431.96 6.6875C435.158 4.25293 439.118 3.21582 443.099 3.78711C447.08 4.35938 450.574 6.43359 452.945 9.67285L568.712 150.583L568.543 150.942L509.399 282.813C509.293 283.046 509.061 283.194 508.828 283.194Z" fill="#3FB1B5" fill-opacity="1.000000" fill-rule="nonzero"/>
	<path id="Vector" d="M572.566 151.388C572.566 154.965 569.665 157.865 566.086 157.865C562.507 157.865 559.606 154.965 559.606 151.388C559.606 147.81 562.507 144.909 566.086 144.909C569.665 144.909 572.566 147.81 572.566 151.388Z" fill="#FFFFFF" fill-opacity="1.000000" fill-rule="evenodd"/>
	<path id="Vector" d="M566.087 158.501C562.169 158.501 558.972 155.305 558.972 151.388C558.972 147.471 562.169 144.274 566.087 144.274C570.004 144.274 573.202 147.471 573.202 151.388C573.202 155.305 570.004 158.501 566.087 158.501ZM566.087 145.545C562.868 145.545 560.242 148.17 560.242 151.388C560.242 154.605 562.868 157.23 566.087 157.23C569.305 157.23 571.931 154.605 571.931 151.388C571.931 148.17 569.305 145.545 566.087 145.545Z" fill="#FFCF2D" fill-opacity="1.000000" fill-rule="nonzero"/>
	<path id="Vector" d="M492.396 267.824L523.968 267.824C533.052 267.824 540.4 275.191 540.4 284.253L540.4 284.718L475.942 284.718L475.942 284.253C475.963 275.191 483.311 267.824 492.396 267.824Z" fill="#FFFFFF" fill-opacity="1.000000" fill-rule="nonzero"/>
	<path id="Vector" d="M541.036 285.354L475.307 285.354L475.307 284.253C475.328 274.854 482.993 267.189 492.396 267.189L523.968 267.189C533.37 267.189 541.036 274.854 541.036 284.253L541.036 285.354ZM476.577 284.083L539.765 284.083C539.68 275.446 532.629 268.46 523.968 268.46L492.396 268.46C483.756 268.46 476.683 275.446 476.577 284.083Z" fill="#FFCF2D" fill-opacity="1.000000" fill-rule="nonzero"/>
	<path id="Vector" d="M339.444 236.641L139.568 236.641C132.051 236.641 125.974 230.564 125.974 223.049L125.974 83.2822C125.974 75.7666 132.051 69.6904 139.568 69.6904L339.444 69.6904C346.962 69.6904 353.039 75.7666 353.039 83.2822L353.039 223.027C353.06 230.543 346.962 236.641 339.444 236.641Z" fill="#FFFFFF" fill-opacity="1.000000" fill-rule="nonzero"/>
	<path id="Vector" d="M339.444 237.275L139.568 237.275C131.712 237.275 125.338 230.903 125.338 223.049L125.338 83.2822C125.338 75.4277 131.712 69.0557 139.568 69.0557L339.444 69.0557C347.301 69.0557 353.674 75.4277 353.674 83.2822L353.674 223.028C353.696 226.817 352.213 230.396 349.524 233.084C346.835 235.794 343.256 237.275 339.444 237.275ZM139.568 70.3262C132.432 70.3262 126.609 76.1475 126.609 83.2822L126.609 223.049C126.609 230.184 132.432 236.006 139.568 236.006L339.444 236.006C342.917 236.006 346.178 234.65 348.635 232.194C351.07 229.739 352.425 226.479 352.404 223.028L352.404 83.2822C352.404 76.1475 346.581 70.3262 339.444 70.3262L139.568 70.3262Z" fill="#3FB1B5" fill-opacity="1.000000" fill-rule="nonzero"/>
	<path id="Vector" d="M339.572 223.642L141.623 223.642C138.679 223.642 136.308 221.249 136.308 218.328L136.308 84.6152C136.308 81.6729 138.701 79.3018 141.623 79.3018L339.572 79.3018C342.515 79.3018 344.887 81.6943 344.887 84.6152L344.887 218.307C344.908 221.249 342.515 223.642 339.572 223.642Z" fill="#66B0F0" fill-opacity="1.000000" fill-rule="nonzero"/>
	<path id="Vector" d="M339.571 224.277L141.622 224.277C138.34 224.277 135.672 221.609 135.672 218.328L135.672 84.6162C135.672 81.334 138.34 78.667 141.622 78.667L339.571 78.667C342.854 78.667 345.521 81.334 345.521 84.6162L345.521 218.307C345.543 219.895 344.929 221.397 343.807 222.52C342.663 223.642 341.181 224.277 339.571 224.277ZM141.622 79.9375C139.039 79.9375 136.942 82.0332 136.942 84.6162L136.942 218.328C136.942 220.911 139.039 223.007 141.622 223.007L339.571 223.007C340.821 223.007 342.006 222.52 342.896 221.631C343.785 220.741 344.251 219.577 344.251 218.328L344.251 84.6162C344.251 82.0332 342.155 79.9375 339.571 79.9375L141.622 79.9375Z" fill="#66B0F0" fill-opacity="1.000000" fill-rule="nonzero"/>
	<path id="Vector" d="M148.716 92.4287L145.582 92.4287C144.206 92.4287 143.083 91.3066 143.083 89.9297L143.083 86.7969C143.083 85.4209 144.206 84.2988 145.582 84.2988L148.716 84.2988C150.093 84.2988 151.215 85.4209 151.215 86.7969L151.215 89.9297C151.194 91.3271 150.093 92.4287 148.716 92.4287ZM145.582 85.5693C144.905 85.5693 144.354 86.1191 144.354 86.7969L144.354 89.9297C144.354 90.6074 144.905 91.1582 145.582 91.1582L148.716 91.1582C149.394 91.1582 149.923 90.6074 149.944 89.9092L149.944 86.7969C149.944 86.1191 149.394 85.5693 148.716 85.5693L145.582 85.5693Z" fill="#FFFFFF" fill-opacity="1.000000" fill-rule="nonzero"/>
	<path id="Vector" d="M162.967 92.4287L159.833 92.4287C158.457 92.4287 157.334 91.3066 157.334 89.9297L157.334 86.7969C157.334 85.4209 158.457 84.2988 159.833 84.2988L162.967 84.2988C164.344 84.2988 165.466 85.4209 165.466 86.7969L165.466 89.9297C165.466 91.3066 164.344 92.4287 162.967 92.4287ZM159.833 85.5693C159.156 85.5693 158.605 86.1191 158.605 86.7969L158.605 89.9297C158.605 90.6074 159.156 91.1582 159.833 91.1582L162.967 91.1582C163.645 91.1582 164.195 90.6074 164.195 89.9297L164.195 86.7969C164.195 86.1191 163.645 85.5693 162.967 85.5693L159.833 85.5693Z" fill="#FFFFFF" fill-opacity="1.000000" fill-rule="nonzero"/>
	<path id="Vector" d="M177.219 92.4287L174.084 92.4287C172.708 92.4287 171.586 91.3066 171.586 89.9297L171.586 86.7969C171.586 85.4209 172.708 84.2988 174.084 84.2988L177.219 84.2988C178.595 84.2988 179.717 85.4209 179.717 86.7969L179.717 89.9297C179.717 91.3066 178.595 92.4287 177.219 92.4287ZM174.084 85.5693C173.407 85.5693 172.856 86.1191 172.856 86.7969L172.856 89.9297C172.856 90.6074 173.407 91.1582 174.084 91.1582L177.219 91.1582C177.917 91.1582 178.447 90.6289 178.447 89.9297L178.447 86.7969C178.447 86.1191 177.896 85.5693 177.219 85.5693L174.084 85.5693Z" fill="#FFFFFF" fill-opacity="1.000000" fill-rule="nonzero"/>
	<path id="Vector" d="M281.699 284.295L204.111 284.295L219.336 236.641L266.452 236.641L281.699 284.295Z" fill="#FFFFFF" fill-opacity="1.000000" fill-rule="nonzero"/>
	<path id="Vector" d="M282.566 284.931L203.243 284.931L218.87 236.006L266.917 236.006L282.566 284.931ZM204.979 283.66L280.83 283.66L265.986 237.276L219.802 237.276L204.979 283.66Z" fill="#3FB1B5" fill-opacity="1.000000" fill-rule="nonzero"/>
	<path id="Vector" d="M210.209 265.221L219.336 236.641L266.452 236.641L210.209 265.221Z" fill="#3FB1B5" fill-opacity="1.000000" fill-rule="nonzero"/>
	<path id="Vector" d="M328.051 123.781L290.338 123.781C286.463 123.781 283.308 120.627 283.308 116.753L283.308 92.4062C283.308 88.5322 286.463 85.3779 290.338 85.3779L328.051 85.3779C331.927 85.3779 335.082 88.5322 335.082 92.4062L335.082 116.753C335.082 120.627 331.927 123.781 328.051 123.781ZM290.338 86.6484C287.162 86.6484 284.578 89.2305 284.578 92.4062L284.578 116.753C284.578 119.928 287.162 122.511 290.338 122.511L328.051 122.511C331.228 122.511 333.812 119.928 333.812 116.753L333.812 92.4062C333.812 89.2305 331.228 86.6484 328.051 86.6484L290.338 86.6484Z" fill="#FFFFFF" fill-opacity="1.000000" fill-rule="nonzero"/>
	<path id="Vector" d="M323.499 95.3291L294.721 95.3291C294.361 95.3291 294.086 95.0537 294.086 94.6934C294.086 94.334 294.361 94.0586 294.721 94.0586L323.499 94.0586C323.858 94.0586 324.134 94.334 324.134 94.6934C324.134 95.0537 323.858 95.3291 323.499 95.3291Z" fill="#FFFFFF" fill-opacity="1.000000" fill-rule="nonzero"/>
	<path id="Vector" d="M323.499 101.892L294.721 101.892C294.361 101.892 294.086 101.616 294.086 101.256C294.086 100.896 294.361 100.621 294.721 100.621L323.499 100.621C323.858 100.621 324.134 100.896 324.134 101.256C324.134 101.616 323.858 101.892 323.499 101.892Z" fill="#FFFFFF" fill-opacity="1.000000" fill-rule="nonzero"/>
	<path id="Vector" d="M323.499 108.454L294.721 108.454C294.361 108.454 294.086 108.179 294.086 107.818C294.086 107.459 294.361 107.184 294.721 107.184L323.499 107.184C323.858 107.184 324.134 107.459 324.134 107.818C324.134 108.179 323.858 108.454 323.499 108.454Z" fill="#FFFFFF" fill-opacity="1.000000" fill-rule="nonzero"/>
	<path id="Vector" d="M323.499 115.017L294.721 115.017C294.361 115.017 294.086 114.741 294.086 114.381C294.086 114.021 294.361 113.746 294.721 113.746L323.499 113.746C323.858 113.746 324.134 114.021 324.134 114.381C324.134 114.741 323.858 115.017 323.499 115.017Z" fill="#FFFFFF" fill-opacity="1.000000" fill-rule="nonzero"/>
	<path id="Vector" d="M338.47 223.642L188.568 223.642L179.781 236.238C169.85 250.465 148.864 250.677 138.658 236.641L85.126 163.031C87.3706 165.825 97.6406 162.714 107.424 156.277C117.355 149.736 123.771 141.501 121.76 138.452L158.88 185.747L170.252 165.678C173.365 160.363 178.531 156.553 184.545 155.155L223.233 146.963L256.584 146.963L293.345 155.071C299.74 156.531 305.161 160.702 308.231 166.481L338.47 223.642Z" fill="#FFFFFF" fill-opacity="1.000000" fill-rule="nonzero"/>
	<path id="Vector" d="M159.07 247.67C150.706 247.67 143.083 243.796 138.149 237L84.6172 163.391L85.6338 162.629C87.4336 164.852 96.9839 162.396 107.084 155.748C111.786 152.657 115.872 149.08 118.583 145.65C121.039 142.56 122.034 139.997 121.229 138.791L122.267 138.05L158.795 184.604L169.701 165.359C172.898 159.897 178.255 155.96 184.396 154.542L223.169 146.327L256.647 146.327L256.711 146.349L293.472 154.457C300.036 155.96 305.626 160.236 308.782 166.186L339.507 224.277L188.886 224.277L180.289 236.598C175.439 243.542 167.795 247.586 159.303 247.67C159.24 247.67 159.155 247.67 159.07 247.67ZM87.0737 164.619L139.187 236.26C143.93 242.78 151.257 246.484 159.325 246.4C167.393 246.315 174.656 242.483 179.272 235.878L188.25 223.007L337.432 223.007L307.681 166.778C304.695 161.146 299.422 157.104 293.217 155.685L256.521 147.598L223.296 147.598L184.672 155.77C178.87 157.124 173.809 160.851 170.802 165.995L158.964 186.89L122.669 140.653C122.373 142.241 121.335 144.231 119.557 146.454C116.762 149.969 112.569 153.652 107.762 156.807C101.049 161.21 92.9814 164.683 88.1748 164.683C87.7935 164.683 87.4126 164.661 87.0737 164.619Z" fill="#3FB1B5" fill-opacity="1.000000" fill-rule="nonzero"/>
	<path id="Vector" d="M297.326 223.409C297.093 223.409 296.881 223.282 296.754 223.07L286.103 202.049C285.955 201.73 286.061 201.35 286.378 201.202C286.696 201.054 287.077 201.159 287.226 201.477L297.876 222.499C298.025 222.816 297.919 223.197 297.602 223.346C297.517 223.389 297.432 223.409 297.326 223.409Z" fill="#3FB1B5" fill-opacity="1.000000" fill-rule="nonzero"/>
	<path id="Vector" d="M187.721 225.378C187.615 225.378 187.531 225.356 187.425 225.314C187.107 225.166 186.98 224.764 187.149 224.468L197.695 203.657C197.843 203.34 198.246 203.213 198.542 203.382C198.859 203.53 198.987 203.933 198.817 204.229L188.272 225.039C188.166 225.251 187.954 225.378 187.721 225.378Z" fill="#3FB1B5" fill-opacity="1.000000" fill-rule="nonzero"/>
	<path id="Vector" d="M168.599 198.916C168.409 198.916 168.218 198.831 168.091 198.661L143.93 167.774C143.718 167.499 143.76 167.097 144.036 166.885C144.311 166.673 144.713 166.716 144.925 166.99L169.086 197.878C169.298 198.153 169.256 198.556 168.98 198.768C168.875 198.873 168.727 198.916 168.599 198.916Z" fill="#3FB1B5" fill-opacity="1.000000" fill-rule="nonzero"/>
	<path id="Vector" d="M252.878 168.854L243.583 157.527C243.35 157.252 243.392 156.85 243.667 156.638C243.942 156.405 244.345 156.447 244.557 156.723L253.048 167.033L272.466 150.562C272.741 150.329 273.144 150.372 273.355 150.626C273.588 150.901 273.546 151.303 273.292 151.515L252.878 168.854Z" fill="#3FB1B5" fill-opacity="1.000000" fill-rule="nonzero"/>
	<path id="Vector" d="M228.739 169.256L206.356 151.536C206.081 151.324 206.039 150.922 206.25 150.646C206.462 150.372 206.864 150.329 207.14 150.541L228.506 167.456L236.743 156.935C236.955 156.659 237.357 156.617 237.632 156.829C237.908 157.04 237.95 157.442 237.738 157.718L228.739 169.256Z" fill="#3FB1B5" fill-opacity="1.000000" fill-rule="nonzero"/>
	<path id="Vector" d="M95.311 174.464C93.2993 174.464 92.2402 173.85 91.7109 173.172C91.4995 172.896 91.5415 172.495 91.8169 172.283C92.0923 172.071 92.4946 172.113 92.7065 172.389C93.5957 173.511 96.4966 173.447 100.457 172.262C104.67 170.991 109.752 168.493 114.369 165.424C119.091 162.291 123.199 158.671 125.931 155.198C128.408 152.065 129.403 149.482 128.599 148.255C128.408 147.958 128.493 147.577 128.79 147.365C129.086 147.175 129.467 147.26 129.679 147.556C130.822 149.313 129.848 152.298 126.947 155.981C124.131 159.538 119.917 163.265 115.089 166.461C110.303 169.637 105.242 172.135 100.838 173.469C98.4448 174.188 96.645 174.464 95.311 174.464Z" fill="#3FB1B5" fill-opacity="1.000000" fill-rule="nonzero"/>
	<path id="Vector" d="M122.479 153.906C120.806 153.906 119.451 152.552 119.451 150.879C119.451 149.206 120.806 147.852 122.479 147.852C124.152 147.852 125.507 149.206 125.507 150.879C125.507 152.552 124.152 153.906 122.479 153.906ZM122.479 149.122C121.505 149.122 120.722 149.905 120.722 150.879C120.722 151.853 121.505 152.636 122.479 152.636C123.453 152.636 124.237 151.853 124.237 150.879C124.237 149.905 123.453 149.122 122.479 149.122Z" fill="#3FB1B5" fill-opacity="1.000000" fill-rule="nonzero"/>
	<path id="Vector" d="M240.639 168.938C238.966 168.938 237.611 167.583 237.611 165.91C237.611 164.237 238.966 162.883 240.639 162.883C242.312 162.883 243.667 164.237 243.667 165.91C243.667 167.583 242.312 168.938 240.639 168.938ZM240.639 164.153C239.665 164.153 238.881 164.937 238.881 165.91C238.881 166.884 239.665 167.667 240.639 167.667C241.613 167.667 242.396 166.884 242.396 165.91C242.396 164.937 241.613 164.153 240.639 164.153Z" fill="#3FB1B5" fill-opacity="1.000000" fill-rule="nonzero"/>
	<path id="Vector" d="M240.639 188.203C238.966 188.203 237.611 186.849 237.611 185.176C237.611 183.503 238.966 182.148 240.639 182.148C242.312 182.148 243.667 183.503 243.667 185.176C243.667 186.849 242.312 188.203 240.639 188.203ZM240.639 183.419C239.665 183.419 238.881 184.202 238.881 185.176C238.881 186.149 239.665 186.933 240.639 186.933C241.613 186.933 242.396 186.149 242.396 185.176C242.396 184.202 241.613 183.419 240.639 183.419Z" fill="#3FB1B5" fill-opacity="1.000000" fill-rule="nonzero"/>
	<path id="Vector" d="M179.018 237.255L188.568 223.643L188.568 237.255L179.018 237.255Z" fill="#3FB1B5" fill-opacity="1.000000" fill-rule="nonzero"/>
	<path id="Vector" d="M107.19 155.643C97.4072 162.078 87.1372 165.19 84.8926 162.396C84.8506 162.354 84.8291 162.312 84.7866 162.247C84.3208 161.549 84.3633 160.597 84.7866 159.432C86.248 155.6 92.2832 149.672 99.9487 144.634C106.047 140.611 112.061 137.816 116.232 136.949C118.646 136.462 120.446 136.61 121.314 137.542L121.526 137.796C123.517 140.845 117.122 149.101 107.19 155.643Z" fill="#FE5244" fill-opacity="1.000000" fill-rule="nonzero"/>
	<path id="Vector" d="M107.191 155.643C101.622 159.306 95.8828 161.909 91.563 162.926L72.23 135.658C69.5405 131.848 70.4302 126.576 74.2627 123.888L91.6689 111.65L81.8013 94.8623C80.3613 92.4277 81.187 89.2734 83.6436 87.8555C84.4482 87.3896 85.3164 87.1777 86.1846 87.1777C87.8574 87.1777 89.5093 88.0029 90.4834 89.5273L121.336 137.5L121.548 137.839C123.517 140.845 117.122 149.102 107.191 155.643Z" fill="#E57281" fill-opacity="1.000000" fill-rule="nonzero"/>
	<path id="Vector" d="M97.1323 135.975C96.8569 135.975 96.5815 135.954 96.3062 135.891C95.2476 135.679 94.3369 135.043 93.7651 134.154L83.5801 118.911C83.3892 118.615 83.4741 118.234 83.749 118.022C84.0459 117.832 84.4268 117.917 84.6387 118.191L94.8242 133.435C95.2266 134.049 95.8403 134.472 96.5605 134.62C97.2803 134.769 98.0215 134.62 98.6357 134.218L101.028 132.651C102.299 131.825 102.659 130.132 101.854 128.861L91.0762 112.158C90.8853 111.861 90.9702 111.48 91.2666 111.29C91.563 111.1 91.9443 111.185 92.1348 111.48L102.913 128.185C104.099 130.047 103.548 132.524 101.706 133.71L99.3135 135.276C98.6782 135.742 97.9155 135.975 97.1323 135.975Z" fill="#9A3B82" fill-opacity="1.000000" fill-rule="nonzero"/>
	<path id="Vector" d="M89.2339 141.035C87.9209 141.035 86.6294 140.399 85.8457 139.235C85.6553 138.938 85.7402 138.558 86.0366 138.346C86.333 138.155 86.7139 138.24 86.9258 138.536C87.7515 139.786 89.4458 140.146 90.7163 139.341L92.8975 137.965C93.5112 137.562 93.9561 136.949 94.1045 136.208C94.2524 135.467 94.1255 134.726 93.7231 134.112C93.5327 133.815 93.6172 133.435 93.9136 133.223C94.2104 133.032 94.5913 133.117 94.8032 133.413C95.396 134.323 95.6079 135.403 95.375 136.483C95.1421 137.542 94.5068 138.452 93.5962 139.045L91.415 140.421C90.7373 140.823 89.9751 141.035 89.2339 141.035Z" fill="#9A3B82" fill-opacity="1.000000" fill-rule="nonzero"/>
	<path id="Vector" d="M81.4834 145.776C80.2129 145.776 78.9634 145.184 78.1802 144.062L72.3989 135.911C72.1875 135.615 72.272 135.234 72.5474 135.022C72.8228 134.811 73.2251 134.896 73.4365 135.171L79.2178 143.321C80.0859 144.527 81.7163 144.846 82.9443 144.062L82.9868 144.041L84.9985 142.919C85.6338 142.517 86.0571 141.902 86.2266 141.183C86.396 140.441 86.248 139.701 85.8457 139.065L75.8721 124.246C75.6812 123.95 75.7446 123.569 76.0415 123.357C76.3379 123.167 76.7188 123.23 76.9307 123.526L86.9043 138.346C87.5186 139.277 87.709 140.378 87.4761 141.437C87.2432 142.495 86.6079 143.405 85.6763 143.978L85.6548 143.998L83.6431 145.12C82.9443 145.586 82.2031 145.776 81.4834 145.776Z" fill="#9A3B82" fill-opacity="1.000000" fill-rule="nonzero"/>
	<path id="Vector" d="M114.136 126.322L109.075 118.468C107.402 115.863 103.908 115.144 101.346 116.88L88.7891 125.391C88.7891 125.391 92.4312 131.932 101.283 126.745L104.247 131.467C98.1909 135.298 96.4546 143.364 100.393 149.355L114.136 126.322Z" fill="#E57281" fill-opacity="1.000000" fill-rule="nonzero"/>
	<path id="Vector" d="M100.393 149.99C100.181 149.99 99.9907 149.884 99.8638 149.693C97.873 146.645 97.1743 143.004 97.958 139.447C98.6777 136.103 100.605 133.223 103.379 131.275L101.071 127.592C98.0215 129.264 95.2476 129.751 92.791 129.095C89.6782 128.248 88.2808 125.792 88.2173 125.707L87.9419 125.199L100.309 116.562C101.706 115.63 103.358 115.292 104.988 115.63C106.619 115.969 108.016 116.922 108.927 118.34L113.988 126.194C114.178 126.491 114.094 126.872 113.797 127.062C113.501 127.253 113.12 127.168 112.929 126.872L107.868 119.018C107.148 117.896 106.047 117.134 104.734 116.879C103.442 116.604 102.108 116.879 101.028 117.62L89.6572 125.56C90.1655 126.216 91.3086 127.401 93.1299 127.888C95.3745 128.502 98.0005 127.931 100.944 126.216L101.473 125.898L105.094 131.678L104.565 132.017C101.791 133.773 99.8638 136.525 99.165 139.743C98.4663 142.961 99.0801 146.264 100.901 149.016C101.092 149.312 101.007 149.693 100.711 149.905C100.626 149.947 100.52 149.99 100.393 149.99Z" fill="#9A3B82" fill-opacity="1.000000" fill-rule="nonzero"/>
	<path id="Vector" d="M107.191 155.643C101.622 159.305 95.8828 161.909 91.563 162.926L86.7563 156.15C89.4458 152.637 94.2524 148.402 99.9487 144.655C106.047 140.633 112.061 137.838 116.233 136.971C118.646 136.483 120.447 136.632 121.315 137.563L121.526 137.817C121.548 137.859 121.569 137.881 121.59 137.923C121.611 137.944 121.611 137.966 121.632 138.008C121.654 138.05 121.675 138.071 121.696 138.113C123.136 141.353 116.805 149.292 107.191 155.643Z" fill="#9A3B82" fill-opacity="1.000000" fill-rule="nonzero"/>
	<path id="Vector" d="M256.563 128.333L256.563 146.941C256.563 152.34 249.067 156.701 239.856 156.701C230.624 156.701 223.148 152.34 223.148 146.941L223.148 128.333L256.563 128.333Z" fill="#E57281" fill-opacity="1.000000" fill-rule="nonzero"/>
	<path id="Vector" d="M228.039 153.844C225.011 152.086 223.126 149.631 223.126 146.941L223.126 128.333L256.562 128.333L256.562 133.499C256.562 138.854 253.301 143.66 248.346 145.672L228.039 153.844Z" fill="#9A3B82" fill-opacity="1.000000" fill-rule="nonzero"/>
	<path id="Vector" d="M265.88 127.232L265.88 127.55C265.88 130.769 263.275 133.372 260.057 133.372L256.224 133.372C254.932 138.58 250.231 142.454 244.599 142.454L235.112 142.454C229.5 142.454 224.778 138.602 223.508 133.372L219.675 133.372C216.456 133.372 213.852 130.769 213.852 127.55L213.852 127.232C213.852 124.015 216.456 121.411 219.675 121.411L223.147 121.411L223.147 116.816C223.147 111.905 226.769 107.841 231.491 107.163C232.528 108.899 235.663 113.049 242.058 112.815C245.064 112.71 247.859 112.138 250.167 111.461C252.942 110.656 255.716 112.35 256.415 114.996C256.521 115.589 256.584 116.182 256.584 116.796L256.584 121.39L260.057 121.39C263.254 121.39 265.88 124.015 265.88 127.232Z" fill="#E57281" fill-opacity="1.000000" fill-rule="nonzero"/>
	<path id="Vector" d="M259.23 121.39L256.562 121.39L256.562 116.287C256.562 115.843 256.499 115.398 256.393 114.996C255.694 112.35 252.92 110.656 250.146 111.461C247.838 112.138 245.064 112.71 242.036 112.815C235.641 113.049 232.507 108.899 231.469 107.163C226.747 107.841 223.126 111.905 223.126 116.816L223.126 121.411L219.802 121.411C219.802 121.411 215.99 107.629 218.849 103.733C221.665 99.9014 225.053 101.574 225.053 101.574C225.053 101.574 223.021 90.0996 234.371 90.3115C245.699 90.5234 260.438 103.67 261.518 106.083C263.211 109.788 259.23 121.39 259.23 121.39Z" fill="#9A3B82" fill-opacity="1.000000" fill-rule="nonzero"/>
	<path id="Vector" d="M257.854 128.841C257.558 128.841 257.325 128.607 257.325 128.312C257.325 125.771 259.4 123.696 261.941 123.696C262.238 123.696 262.471 123.929 262.471 124.226C262.471 124.521 262.238 124.755 261.941 124.755C259.972 124.755 258.384 126.343 258.384 128.312C258.384 128.607 258.151 128.841 257.854 128.841Z" fill="#9A3B82" fill-opacity="1.000000" fill-rule="nonzero"/>
	<path id="Vector" d="M221.898 128.841C221.602 128.841 221.369 128.607 221.369 128.312C221.369 126.343 219.78 124.755 217.811 124.755C217.515 124.755 217.282 124.521 217.282 124.226C217.282 123.929 217.515 123.696 217.811 123.696C220.352 123.696 222.427 125.771 222.427 128.312C222.427 128.607 222.194 128.841 221.898 128.841Z" fill="#9A3B82" fill-opacity="1.000000" fill-rule="nonzero"/>
	<path id="Vector" d="M251.227 117.346C251.121 117.346 251.015 117.304 250.909 117.24C250.803 117.155 248.071 115.229 244.577 116.689C244.302 116.795 244.005 116.668 243.878 116.394C243.772 116.118 243.9 115.821 244.175 115.694C248.241 114.022 251.396 116.266 251.523 116.372C251.756 116.541 251.819 116.88 251.629 117.113C251.544 117.261 251.396 117.346 251.227 117.346Z" fill="#9A3B82" fill-opacity="1.000000" fill-rule="nonzero"/>
	<path id="Vector" d="M228.272 117.346C228.103 117.346 227.955 117.262 227.849 117.135C227.679 116.901 227.722 116.562 227.955 116.394C228.082 116.287 231.258 114.044 235.303 115.716C235.578 115.822 235.705 116.14 235.599 116.415C235.493 116.689 235.175 116.816 234.9 116.711C231.385 115.25 228.611 117.24 228.569 117.262C228.484 117.304 228.378 117.346 228.272 117.346Z" fill="#9A3B82" fill-opacity="1.000000" fill-rule="nonzero"/>
	<path id="Vector" d="M241.189 135.171C240.363 135.171 239.411 135.002 238.331 134.6C238.055 134.493 237.907 134.197 238.013 133.922C238.119 133.646 238.415 133.499 238.69 133.604C243.137 135.256 244.599 132.334 244.662 132.207C244.789 131.953 245.106 131.826 245.361 131.953C245.615 132.08 245.742 132.397 245.615 132.651C245.594 132.694 244.387 135.171 241.189 135.171Z" fill="#9A3B82" fill-opacity="1.000000" fill-rule="nonzero"/>
	<path id="Vector" d="M239.686 131.191C239.199 131.191 238.669 131.191 238.225 131.148C237.928 131.128 237.717 130.874 237.738 130.577C237.759 130.281 238.013 130.069 238.31 130.09C239.559 130.175 241.486 130.09 241.507 130.09C241.804 130.069 242.037 130.302 242.058 130.599C242.079 130.895 241.846 131.128 241.549 131.148C241.507 131.148 240.639 131.191 239.686 131.191Z" fill="#9A3B82" fill-opacity="1.000000" fill-rule="nonzero"/>
	<path id="Vector" d="M248.876 123.866C248.876 124.849 248.402 125.645 247.817 125.645C247.233 125.645 246.759 124.849 246.759 123.866C246.759 122.884 247.233 122.088 247.817 122.088C248.402 122.088 248.876 122.884 248.876 123.866Z" fill="#9A3B82" fill-opacity="1.000000" fill-rule="evenodd"/>
	<path id="Vector" d="M233.693 123.866C233.693 124.849 233.219 125.645 232.634 125.645C232.049 125.645 231.575 124.849 231.575 123.866C231.575 122.884 232.049 122.088 232.634 122.088C233.219 122.088 233.693 122.884 233.693 123.866Z" fill="#9A3B82" fill-opacity="1.000000" fill-rule="evenodd"/>
	<path id="Vector" d="M235.154 130.387L228.484 130.387C226.917 130.387 225.625 129.096 225.625 127.528L225.625 120.86C225.625 119.293 226.917 118.002 228.484 118.002L235.154 118.002C236.721 118.002 238.013 119.293 238.013 120.86L238.013 127.528C238.034 128.27 237.737 128.989 237.208 129.519C236.657 130.09 235.938 130.387 235.154 130.387ZM228.484 119.061C227.488 119.061 226.684 119.865 226.684 120.86L226.684 127.528C226.684 128.523 227.488 129.328 228.484 129.328L235.154 129.328C235.641 129.328 236.107 129.138 236.446 128.777C236.785 128.438 236.954 127.994 236.954 127.528L236.954 120.86C236.954 119.865 236.149 119.061 235.154 119.061L228.484 119.061Z" fill="#FFFFFF" fill-opacity="1.000000" fill-rule="nonzero"/>
	<path id="Vector" d="M251.48 130.387L244.81 130.387C243.243 130.387 241.951 129.096 241.951 127.528L241.951 120.86C241.951 119.293 243.243 118.002 244.81 118.002L251.48 118.002C253.047 118.002 254.339 119.293 254.339 120.86L254.339 127.528C254.339 129.096 253.047 130.387 251.48 130.387ZM244.81 119.061C243.814 119.061 243.01 119.865 243.01 120.86L243.01 127.528C243.01 128.523 243.814 129.328 244.81 129.328L251.48 129.328C252.476 129.328 253.28 128.523 253.28 127.528L253.28 120.86C253.28 119.865 252.476 119.061 251.48 119.061L244.81 119.061Z" fill="#FFFFFF" fill-opacity="1.000000" fill-rule="nonzero"/>
	<path id="Vector" d="M237.504 122.405L242.48 122.405L242.48 123.464L237.504 123.464L237.504 122.405Z" fill="#FFFFFF" fill-opacity="1.000000" fill-rule="evenodd"/>
	<path id="Vector" d="M253.239 216.062L230.094 216.062C227.638 216.062 225.647 214.072 225.647 211.617L225.647 199.316C225.647 196.861 227.638 194.871 230.094 194.871L253.239 194.871C255.695 194.871 257.686 196.861 257.686 199.316L257.686 211.617C257.686 214.072 255.695 216.062 253.239 216.062ZM230.094 196.142C228.336 196.142 226.917 197.56 226.917 199.316L226.917 211.617C226.917 213.374 228.336 214.792 230.094 214.792L253.239 214.792C254.996 214.792 256.415 213.374 256.415 211.617L256.415 199.316C256.415 197.56 254.996 196.142 253.239 196.142L230.094 196.142Z" fill="#66B0F0" fill-opacity="1.000000" fill-rule="nonzero"/>
	<path id="Vector" d="M242.248 210.475L234.413 210.475C233.164 210.475 232.147 209.458 232.147 208.209L232.147 202.727C232.147 201.478 233.164 200.461 234.413 200.461L242.248 200.461C243.498 200.461 244.514 201.478 244.514 202.727L244.514 208.209C244.514 209.458 243.498 210.475 242.248 210.475Z" fill="#66B0F0" fill-opacity="1.000000" fill-rule="nonzero"/>
	<path id="Vector" d="M249.872 210.326L247.458 208.718C246.801 208.272 246.399 207.511 246.399 206.686L246.399 204.271C246.399 203.446 246.801 202.684 247.458 202.239L249.872 200.63C250.443 200.249 251.185 200.673 251.185 201.393L251.185 209.585C251.206 210.284 250.443 210.707 249.872 210.326Z" fill="#66B0F0" fill-opacity="1.000000" fill-rule="nonzero"/>
	<path id="Vector" d="M562.783 285.354L0.635254 285.354C0.275391 285.354 0 285.079 0 284.719C0 284.359 0.275391 284.084 0.635254 284.084L562.783 284.084C563.143 284.084 563.418 284.359 563.418 284.719C563.418 285.079 563.143 285.354 562.783 285.354Z" fill="#3FB1B5" fill-opacity="1.000000" fill-rule="nonzero"/>
	<path id="Vector" d="M181.623 288.424L181.623 549.794L166.864 549.794L166.864 500.043C166.864 495.407 163.094 491.639 158.457 491.639L52.812 491.639C48.1748 491.639 44.4053 495.407 44.4053 500.043L44.4053 549.794L29.646 549.794L29.646 288.424L181.623 288.424Z" fill="#FFFFFF" fill-opacity="1.000000" fill-rule="nonzero"/>
	<path id="Vector" d="M182.258 550.429L166.229 550.429L166.229 500.043C166.229 495.767 162.734 492.273 158.457 492.273L52.812 492.273C48.5347 492.273 45.0405 495.767 45.0405 500.043L45.0405 550.429L29.0107 550.429L29.0107 287.788L182.258 287.788L182.258 550.429ZM167.499 549.158L180.988 549.158L180.988 289.059L30.2812 289.059L30.2812 549.158L43.77 549.158L43.77 500.043C43.77 495.067 47.8359 491.003 52.812 491.003L158.457 491.003C163.433 491.003 167.499 495.067 167.499 500.043L167.499 549.158Z" fill="#3FB1B5" fill-opacity="1.000000" fill-rule="nonzero"/>
	<path id="Vector" d="M182.068 288.424L182.068 357.778L29.646 483.255L29.667 288.424L182.068 288.424Z" fill="#D0F0E4" fill-opacity="1.000000" fill-rule="nonzero"/>
	<path id="Vector" d="M158.901 364.319L52.3882 364.319C47.645 364.319 43.791 360.467 43.791 355.725L43.791 308.323C43.791 303.581 47.645 299.729 52.3882 299.729L158.901 299.729C163.645 299.729 167.499 303.581 167.499 308.323L167.499 355.725C167.499 360.467 163.645 364.319 158.901 364.319ZM52.3882 300.999C48.3438 300.999 45.0615 304.28 45.0615 308.323L45.0615 355.725C45.0615 359.768 48.3438 363.049 52.3882 363.049L158.901 363.049C162.946 363.049 166.228 359.768 166.228 355.725L166.228 308.323C166.228 304.28 162.946 300.999 158.901 300.999L52.3882 300.999Z" fill="#3FB1B5" fill-opacity="1.000000" fill-rule="nonzero"/>
	<path id="Vector" d="M132.728 399.589L80.2974 399.589L78.1162 384.579L130.568 384.579L132.728 399.589Z" fill="#FFCF2D" fill-opacity="1.000000" fill-rule="nonzero"/>
	<path id="Vector" d="M160.701 375.921C154.158 375.921 148.864 381.214 148.864 387.755L148.864 399.59L104.247 399.59L104.247 387.755C104.247 381.214 109.541 375.921 116.084 375.921L160.701 375.921Z" fill="#FFFFFF" fill-opacity="1.000000" fill-rule="nonzero"/>
	<path id="Vector" d="M149.5 400.225L103.612 400.225L103.612 387.756C103.612 380.875 109.203 375.286 116.085 375.286L160.702 375.286L160.702 376.557C154.519 376.557 149.5 381.574 149.5 387.756L149.5 400.225ZM104.883 398.955L148.229 398.955L148.229 387.756C148.229 382.844 151.088 378.589 155.217 376.557L116.085 376.557C109.901 376.557 104.883 381.574 104.883 387.756L104.883 398.955Z" fill="#3FB1B5" fill-opacity="1.000000" fill-rule="nonzero"/>
	<path id="Vector" d="M171.819 384.58L127.202 384.58C125.825 379.583 121.23 375.921 115.788 375.921L160.405 375.921C165.847 375.921 170.421 379.583 171.819 384.58Z" fill="#FFFFFF" fill-opacity="1.000000" fill-rule="nonzero"/>
	<path id="Vector" d="M172.667 385.215L126.737 385.215L126.609 384.749C125.275 379.923 120.829 376.557 115.81 376.557L115.81 375.286L160.427 375.286C165.996 375.286 170.951 379.033 172.455 384.411L172.667 385.215ZM127.668 383.945L170.951 383.945C169.363 379.562 165.128 376.557 160.406 376.557L121.273 376.557C124.259 378.018 126.631 380.663 127.668 383.945Z" fill="#3FB1B5" fill-opacity="1.000000" fill-rule="nonzero"/>
	<path id="Vector" d="M158.901 463.545L52.3882 463.545C47.645 463.545 43.791 459.692 43.791 454.95L43.791 407.549C43.791 402.807 47.645 398.954 52.3882 398.954L158.901 398.954C163.645 398.954 167.499 402.807 167.499 407.549L167.499 454.95C167.499 459.692 163.645 463.545 158.901 463.545ZM52.3882 400.225C48.3438 400.225 45.0615 403.506 45.0615 407.549L45.0615 454.95C45.0615 458.993 48.3438 462.274 52.3882 462.274L158.901 462.274C162.946 462.274 166.228 458.993 166.228 454.95L166.228 407.549C166.228 403.506 162.946 400.225 158.901 400.225L52.3882 400.225Z" fill="#3FB1B5" fill-opacity="1.000000" fill-rule="nonzero"/>
	<path id="Vector" d="M127.477 331.717C127.117 331.717 126.842 331.441 126.842 331.082C126.842 327.652 124.067 324.879 120.637 324.879L90.6738 324.879C87.2432 324.879 84.4692 327.652 84.4692 331.082C84.4692 331.441 84.1938 331.717 83.834 331.717C83.4741 331.717 83.1987 331.441 83.1987 331.082C83.1987 326.953 86.5444 323.608 90.6738 323.608L120.637 323.608C124.767 323.608 128.112 326.953 128.112 331.082C128.112 331.441 127.837 331.717 127.477 331.717Z" fill="#3FB1B5" fill-opacity="1.000000" fill-rule="nonzero"/>
	<path id="Vector" d="M127.477 430.942C127.117 430.942 126.842 430.667 126.842 430.307C126.842 426.878 124.067 424.104 120.637 424.104L90.6738 424.104C87.2432 424.104 84.4692 426.878 84.4692 430.307C84.4692 430.667 84.1938 430.942 83.834 430.942C83.4741 430.942 83.1987 430.667 83.1987 430.307C83.1987 426.179 86.5444 422.834 90.6738 422.834L120.637 422.834C124.767 422.834 128.112 426.179 128.112 430.307C128.112 430.667 127.837 430.942 127.477 430.942Z" fill="#3FB1B5" fill-opacity="1.000000" fill-rule="nonzero"/>
	<path id="Vector" d="M524.667 288.424L540.4 288.424L540.4 550.365L524.667 550.365L524.667 288.424Z" fill="#FFFFFF" fill-opacity="1.000000" fill-rule="evenodd"/>
	<path id="Vector" d="M541.035 551L524.031 551L524.031 287.788L541.035 287.788L541.035 551ZM525.302 549.729L539.765 549.729L539.765 289.059L525.302 289.059L525.302 549.729Z" fill="#3FB1B5" fill-opacity="1.000000" fill-rule="nonzero"/>
	<path id="Vector" d="M601.365 551.001L273.017 551.001C272.657 551.001 272.381 550.726 272.381 550.365C272.381 550.006 272.657 549.73 273.017 549.73L601.365 549.73C601.725 549.73 602 550.006 602 550.365C602 550.726 601.725 551.001 601.365 551.001Z" fill="#3FB1B5" fill-opacity="1.000000" fill-rule="nonzero"/>
	<path id="Vector" d="M74.3262 248.792L64.8184 248.792C64.8184 248.792 51.2451 192.246 39.3232 190.404C27.4014 188.562 26.7871 210.326 26.7871 210.326C26.7871 210.326 26.999 177.236 56.793 181.767C86.6079 186.298 74.3262 248.792 74.3262 248.792Z" fill="#FFFFFF" fill-opacity="1.000000" fill-rule="nonzero"/>
	<path id="Vector" d="M74.8564 249.428L64.332 249.428L64.2051 248.94C64.1626 248.792 60.7534 234.65 55.9468 220.487C47.9849 197.052 42.458 191.526 39.2393 191.039C37.0371 190.701 35.0889 191.209 33.4795 192.563C27.8677 197.222 27.4443 210.22 27.4443 210.347L26.1738 210.326C26.1738 210.156 26.2163 206.282 27.4653 201.328C28.6304 196.734 31.0864 190.319 36.2324 185.916C41.4624 181.449 48.4082 179.841 56.9209 181.153C62.4263 181.979 66.8945 184.815 70.2188 189.536C75.5552 197.137 77.9902 209.437 77.4185 226.14C76.9951 238.524 75.0049 248.813 74.9834 248.919L74.8564 249.428ZM65.3276 248.157L73.8188 248.157C74.2212 245.935 75.7881 236.789 76.1479 226.076C76.5293 214.793 75.6187 199.444 69.1812 190.277C66.0684 185.832 61.876 183.186 56.73 182.423C48.6201 181.195 41.9922 182.698 37.0581 186.911C35.5757 188.182 34.3052 189.643 33.2466 191.188C35.0464 189.918 37.1216 189.473 39.4507 189.833C44.6387 190.638 50.6104 200.842 57.1748 220.148C61.4736 232.83 64.6709 245.532 65.3276 248.157Z" fill="#3FB1B5" fill-opacity="1.000000" fill-rule="nonzero"/>
	<path id="Vector" d="M70.1548 248.581C69.8159 248.581 69.5195 248.306 69.5195 247.945C68.8203 205.795 59.8843 190.912 52.5151 185.874C46.9248 182.042 42.0332 183.778 41.9912 183.799C41.6523 183.926 41.2925 183.757 41.165 183.418C41.0381 183.079 41.2075 182.72 41.5464 182.593C41.7793 182.508 47.0942 180.624 53.2354 184.815C57.9785 188.075 61.854 194.046 64.7334 202.599C68.4395 213.607 70.4722 228.85 70.79 247.924C70.79 248.284 70.5146 248.581 70.1548 248.581Z" fill="#3FB1B5" fill-opacity="1.000000" fill-rule="nonzero"/>
	<path id="Vector" d="M55.5649 247.945L100.224 247.945L100.224 284.295L55.5649 284.295L55.5649 247.945Z" fill="#FE5244" fill-opacity="1.000000" fill-rule="evenodd"/>
	<path id="Vector" d="M109.626 266.131C106.789 267.358 103.401 267.21 100.246 265.834C97.916 264.818 95.7139 263.146 93.9351 260.859C91.479 257.684 89.8271 253.344 89.8271 247.945C89.8271 234.862 79.4087 226.647 75.1313 243.965C74.835 245.172 74.5596 246.484 74.3267 247.945L74.3267 247.902L74.3267 247.818C74.3267 247.775 74.3267 247.712 74.3477 247.648L74.3477 247.564C74.4326 246.484 74.75 243.288 75.7241 239.435C76.4443 236.576 77.5244 233.401 79.1333 230.458C79.938 228.998 80.8701 227.601 81.9712 226.352C84.8086 223.091 88.7051 220.805 94.02 220.805C103.803 220.805 110.96 232.321 113.692 243.796C116.085 253.767 115.111 263.738 109.626 266.131Z" fill="#FFFFFF" fill-opacity="1.000000" fill-rule="nonzero"/>
	<path id="Vector" d="M105.455 267.592C103.654 267.592 101.77 267.189 99.9912 266.406C97.4712 265.306 95.2056 263.527 93.4268 261.24C90.6528 257.663 89.1914 253.048 89.1914 247.945C89.1914 241.976 86.5659 235.243 82.6484 234.777C79.811 234.438 77.312 237.848 75.7451 244.113C75.4277 245.426 75.1733 246.696 74.9404 248.052L73.6699 247.945L73.6699 247.818C73.6699 247.776 73.6699 247.67 73.6909 247.564L73.6909 247.501C73.7759 246.315 74.1147 243.14 75.0889 239.266C75.957 235.836 77.1216 232.767 78.5615 230.142C79.4722 228.511 80.4248 227.114 81.4839 225.929C84.8081 222.097 89.022 220.17 94.0195 220.17C104.184 220.17 111.532 231.962 114.306 243.647C115.534 248.792 115.873 253.853 115.237 257.896C114.539 262.447 112.675 265.475 109.88 266.702C108.525 267.295 107.021 267.592 105.455 267.592ZM82.2671 233.486C82.458 233.486 82.627 233.507 82.7964 233.528C87.0317 234.036 90.4619 240.515 90.4619 247.967C90.4619 252.794 91.8384 257.134 94.4434 260.5C96.0947 262.616 98.1914 264.268 100.5 265.284C103.527 266.597 106.767 266.702 109.372 265.58C114.115 263.506 115.619 254.636 113.078 243.986C111.659 237.995 109.139 232.47 106.005 228.427C102.469 223.875 98.3394 221.482 94.0195 221.482C89.4243 221.482 85.5283 223.282 82.458 226.817C81.4624 227.961 80.5518 229.252 79.7051 230.818C78.646 232.767 77.7358 234.947 76.9946 237.36C77.3545 236.768 77.7144 236.238 78.0957 235.772C79.5991 233.931 81.1235 233.486 82.2671 233.486Z" fill="#3FB1B5" fill-opacity="1.000000" fill-rule="nonzero"/>
	<path id="Vector" d="M107.36 267.168C107.042 267.168 106.767 266.936 106.725 266.597C103.633 237.572 96.582 228.596 91.2246 226.183C86.439 224.023 82.394 226.839 82.3521 226.86C82.0767 227.071 81.6743 226.987 81.4624 226.712C81.251 226.437 81.3354 226.034 81.6108 225.822C81.8013 225.695 86.2905 222.562 91.7329 225.018C95.3325 226.648 98.4663 230.332 101.029 236.006C104.248 243.098 106.577 253.344 107.974 266.448C108.017 266.787 107.763 267.104 107.402 267.147C107.402 267.168 107.381 267.168 107.36 267.168Z" fill="#3FB1B5" fill-opacity="1.000000" fill-rule="nonzero"/>
	<path id="Vector" d="M26.1519 210.325C26.1519 213.818 25.7495 227.177 38.4971 227.791C51.2446 228.405 52.5156 209.161 52.5156 209.161C52.5156 209.161 46.2476 192.14 39.3232 190.404C27.6128 187.461 26.1519 210.325 26.1519 210.325Z" fill="#3FB1B5" fill-opacity="1.000000" fill-rule="nonzero"/>
	<path id="Vector" d="M89.8267 247.945L74.3262 247.945C77.9048 225.526 89.8267 233.952 89.8267 247.945Z" fill="#3FB1B5" fill-opacity="1.000000" fill-rule="nonzero"/>
	<g opacity="0.400000">
		<path id="Vector" d="M353.06 83.2822L353.06 223.027C353.06 230.543 346.962 236.619 339.465 236.619L179.484 236.619C169.447 250.443 148.758 250.507 138.637 236.619L138.615 236.598C134.592 236.323 131.035 234.27 128.748 231.242L132.432 228.066L226.452 146.941L315.982 69.6904L339.465 69.6904C346.962 69.6904 353.06 75.7871 353.06 83.2822Z" fill="#FFFFFF" fill-opacity="1.000000" fill-rule="nonzero"/>
	</g>
	<g opacity="0.400000">
		<path id="Vector" d="M109.626 266.766C106.81 268.036 103.4 267.846 100.245 266.47L100.245 284.295L67.2749 284.295L93.9561 261.282L100.267 255.842L105.073 251.692L114.369 243.796C117.08 255.354 115.576 264.035 109.626 266.766Z" fill="#FFFFFF" fill-opacity="1.000000" fill-rule="nonzero"/>
	</g>
	<path id="Vector" d="M390.392 360.826L390.392 478.661L363.16 478.661L345.817 430.244L320.979 360.826L390.392 360.826Z" fill="#A0505A" fill-opacity="1.000000" fill-rule="nonzero"/>
	<path id="Vector" d="M320.979 360.826L390.392 360.826L390.392 398.658L329.237 383.881L320.979 360.826Z" fill="#73325A" fill-opacity="1.000000" fill-rule="nonzero"/>
	<path id="Vector" d="M391.028 479.295L362.716 479.295L344.653 428.867L346.136 429.672C346.178 429.692 349.693 431.577 356.851 432.509C363.457 433.377 374.638 433.567 390.244 429.608L391.028 429.418L391.028 479.295ZM363.605 478.024L389.757 478.024L389.757 431.048C374.299 434.88 363.203 434.646 356.575 433.778C351.768 433.144 348.592 432.106 346.919 431.429L363.605 478.024Z" fill="#FFFFFF" fill-opacity="1.000000" fill-rule="nonzero"/>
	<path id="Vector" d="M359.985 442.247C357.931 442.247 356.258 440.574 356.258 438.521C356.258 436.468 357.931 434.795 359.985 434.795C362.039 434.795 363.711 436.468 363.711 438.521C363.711 440.574 362.039 442.247 359.985 442.247ZM359.985 436.065C358.629 436.065 357.528 437.166 357.528 438.521C357.528 439.876 358.629 440.977 359.985 440.977C361.34 440.977 362.441 439.876 362.441 438.521C362.441 437.166 361.34 436.065 359.985 436.065Z" fill="#FFFFFF" fill-opacity="1.000000" fill-rule="nonzero"/>
	<path id="Vector" d="M374.723 452.219C372.669 452.219 370.996 450.546 370.996 448.492C370.996 446.439 372.669 444.767 374.723 444.767C376.777 444.767 378.45 446.439 378.45 448.492C378.45 450.546 376.777 452.219 374.723 452.219ZM374.723 446.037C373.368 446.037 372.267 447.138 372.267 448.492C372.267 449.848 373.368 450.948 374.723 450.948C376.078 450.948 377.179 449.848 377.179 448.492C377.179 447.138 376.078 446.037 374.723 446.037Z" fill="#FFFFFF" fill-opacity="1.000000" fill-rule="nonzero"/>
	<path id="Vector" d="M385.691 441.146C383.637 441.146 381.964 439.474 381.964 437.42C381.964 435.367 383.637 433.694 385.691 433.694C387.746 433.694 389.418 435.367 389.418 437.42C389.418 439.474 387.746 441.146 385.691 441.146ZM385.691 434.965C384.336 434.965 383.235 436.065 383.235 437.42C383.235 438.775 384.336 439.876 385.691 439.876C387.046 439.876 388.148 438.775 388.148 437.42C388.148 436.065 387.046 434.965 385.691 434.965Z" fill="#FFFFFF" fill-opacity="1.000000" fill-rule="nonzero"/>
	<path id="Vector" d="M381.351 463.819C379.296 463.819 377.624 462.146 377.624 460.093C377.624 458.04 379.296 456.367 381.351 456.367C383.404 456.367 385.077 458.04 385.077 460.093C385.077 462.146 383.404 463.819 381.351 463.819ZM381.351 457.638C379.995 457.638 378.894 458.738 378.894 460.093C378.894 461.448 379.995 462.549 381.351 462.549C382.706 462.549 383.807 461.448 383.807 460.093C383.807 458.738 382.706 457.638 381.351 457.638Z" fill="#FFFFFF" fill-opacity="1.000000" fill-rule="nonzero"/>
	<path id="Vector" d="M363.077 458.188C361.022 458.188 359.35 456.516 359.35 454.462C359.35 452.409 361.022 450.736 363.077 450.736C365.13 450.736 366.803 452.409 366.803 454.462C366.803 456.516 365.13 458.188 363.077 458.188ZM363.077 452.007C361.721 452.007 360.62 453.107 360.62 454.462C360.62 455.817 361.721 456.918 363.077 456.918C364.432 456.918 365.533 455.817 365.533 454.462C365.533 453.107 364.432 452.007 363.077 452.007Z" fill="#FFFFFF" fill-opacity="1.000000" fill-rule="nonzero"/>
	<path id="Vector" d="M368.116 475.125C366.062 475.125 364.389 473.452 364.389 471.398C364.389 469.346 366.062 467.673 368.116 467.673C370.169 467.673 371.842 469.346 371.842 471.398C371.842 473.452 370.169 475.125 368.116 475.125ZM368.116 468.943C366.76 468.943 365.659 470.044 365.659 471.398C365.659 472.754 366.76 473.854 368.116 473.854C369.471 473.854 370.572 472.754 370.572 471.398C370.572 470.044 369.471 468.943 368.116 468.943Z" fill="#FFFFFF" fill-opacity="1.000000" fill-rule="nonzero"/>
	<path id="Vector" d="M403.267 500.636L384.59 539.398C381.943 545.645 375.823 549.709 369.026 549.709L345.204 549.709C339.105 549.709 335.399 543.527 337.729 537.896L361.678 480.143C363.012 476.629 365.362 473.707 368.306 471.653C371.271 469.6 374.828 468.436 378.576 468.436C383.785 468.436 388.952 471.971 392.382 475.888L400.684 484.843C404.516 489.204 405.511 495.322 403.267 500.636Z" fill="#66B0F0" fill-opacity="1.000000" fill-rule="nonzero"/>
	<path id="Vector" d="M403.267 500.636L384.59 539.398C381.943 545.644 375.824 549.708 369.026 549.708L343.701 549.708C341.35 549.708 340.016 548.248 339.232 546.236L344.865 546.236C351.663 546.236 357.782 542.172 360.429 535.927L381.965 491.024C383.977 486.832 388.232 484.144 392.891 484.144C398.969 484.144 403.585 488.59 404.432 494.221C404.517 496.38 404.135 498.561 403.267 500.636Z" fill="#FFFFFF" fill-opacity="1.000000" fill-rule="nonzero"/>
	<path id="Vector" d="M369.026 550.344L343.7 550.344C341.349 550.344 339.634 549.031 338.639 546.47C338.554 546.279 338.597 546.046 338.702 545.877C338.83 545.707 339.02 545.602 339.232 545.602L344.864 545.602C351.408 545.602 357.294 541.706 359.835 535.673C359.835 535.673 359.835 535.651 359.857 535.651L381.392 490.749C383.51 486.346 388.021 483.509 392.891 483.509C399.01 483.509 404.135 487.976 405.066 494.137C405.066 494.157 405.066 494.179 405.066 494.2C405.151 496.486 404.749 498.752 403.859 500.89C403.859 500.89 403.859 500.911 403.838 500.911L385.162 539.652C382.409 546.152 376.077 550.344 369.026 550.344ZM340.227 546.872C341.032 548.375 342.154 549.073 343.7 549.073L369.026 549.073C375.569 549.073 381.456 545.178 383.997 539.145C383.997 539.145 383.997 539.123 384.018 539.123L402.695 500.382C403.5 498.434 403.881 496.381 403.796 494.284C402.949 488.78 398.375 484.779 392.891 484.779C388.507 484.779 384.441 487.341 382.536 491.3L361 536.181C358.248 542.68 351.916 546.872 344.864 546.872L340.227 546.872Z" fill="#66B0F0" fill-opacity="1.000000" fill-rule="nonzero"/>
	<path id="Vector" d="M398.969 482.979C396.724 481.751 394.014 480.862 391.642 480.862C387.089 480.862 382.875 483.509 380.906 487.615L358.608 534.105C355.771 540.816 349.206 545.156 341.9 545.156L337.792 545.156C337.581 544.754 337.433 544.331 337.284 543.887L341.9 543.887C348.698 543.887 354.796 539.843 357.443 533.598L357.464 533.576L379.784 487.065C381.964 482.514 386.623 479.592 391.663 479.592C393.272 479.592 395.199 480.121 396.851 480.692L398.969 482.979Z" fill="#FFFFFF" fill-opacity="1.000000" fill-rule="nonzero"/>
	<path id="Vector" d="M320.979 360.826L315.664 430.244L313.292 461.343C313.292 461.343 297.812 478.576 280.194 467.948L272.042 430.265L253.386 344.038C248.346 320.729 264.271 298.056 287.923 294.901L320.979 360.826Z" fill="#A0505A" fill-opacity="1.000000" fill-rule="nonzero"/>
	<path id="Vector" d="M292.117 472.881C288.326 472.881 284.154 471.928 279.877 469.346L279.644 469.197L271.216 429.354L272.233 429.672C292.286 435.685 315.283 429.715 315.516 429.651L316.384 429.418L313.927 462.465L313.779 462.635C313.61 462.804 309.756 467.059 303.636 470.065C300.565 471.547 296.584 472.881 292.117 472.881ZM280.767 468.393C287.797 472.542 295.293 472.712 303.043 468.922C308.294 466.339 311.937 462.698 312.678 461.915L314.965 431.069C313.038 431.514 308.041 432.594 301.582 433.187C294.149 433.885 283.244 434.055 272.868 431.175L280.767 468.393Z" fill="#FFFFFF" fill-opacity="1.000000" fill-rule="nonzero"/>
	<path id="Vector" d="M291.333 450.081C289.278 450.081 287.605 448.408 287.605 446.354C287.605 444.302 289.278 442.629 291.333 442.629C293.386 442.629 295.059 444.302 295.059 446.354C295.059 448.408 293.386 450.081 291.333 450.081ZM291.333 443.899C289.977 443.899 288.876 445 288.876 446.354C288.876 447.71 289.977 448.811 291.333 448.811C292.688 448.811 293.789 447.71 293.789 446.354C293.789 445 292.688 443.899 291.333 443.899Z" fill="#FFFFFF" fill-opacity="1.000000" fill-rule="nonzero"/>
	<path id="Vector" d="M310.984 445.339C308.93 445.339 307.257 443.666 307.257 441.612C307.257 439.56 308.93 437.887 310.984 437.887C313.038 437.887 314.711 439.56 314.711 441.612C314.711 443.666 313.038 445.339 310.984 445.339ZM310.984 439.157C309.628 439.157 308.527 440.258 308.527 441.612C308.527 442.968 309.628 444.068 310.984 444.068C312.339 444.068 313.44 442.968 313.44 441.612C313.44 440.258 312.339 439.157 310.984 439.157Z" fill="#FFFFFF" fill-opacity="1.000000" fill-rule="nonzero"/>
	<path id="Vector" d="M279.475 441.146C277.42 441.146 275.748 439.474 275.748 437.42C275.748 435.367 277.42 433.694 279.475 433.694C281.528 433.694 283.201 435.367 283.201 437.42C283.201 439.474 281.528 441.146 279.475 441.146ZM279.475 434.965C278.119 434.965 277.018 436.065 277.018 437.42C277.018 438.775 278.119 439.876 279.475 439.876C280.83 439.876 281.931 438.775 281.931 437.42C281.931 436.065 280.83 434.965 279.475 434.965Z" fill="#FFFFFF" fill-opacity="1.000000" fill-rule="nonzero"/>
	<path id="Vector" d="M288.242 466.911C286.188 466.911 284.515 465.238 284.515 463.185C284.515 461.132 286.188 459.459 288.242 459.459C290.295 459.459 291.968 461.132 291.968 463.185C291.968 465.238 290.295 466.911 288.242 466.911ZM288.242 460.729C286.886 460.729 285.785 461.83 285.785 463.185C285.785 464.54 286.886 465.641 288.242 465.641C289.597 465.641 290.698 464.54 290.698 463.185C290.698 461.83 289.597 460.729 288.242 460.729Z" fill="#FFFFFF" fill-opacity="1.000000" fill-rule="nonzero"/>
	<path id="Vector" d="M302.662 460.729C300.607 460.729 298.935 459.057 298.935 457.003C298.935 454.95 300.607 453.277 302.662 453.277C304.715 453.277 306.388 454.95 306.388 457.003C306.388 459.057 304.715 460.729 302.662 460.729ZM302.662 454.548C301.306 454.548 300.205 455.648 300.205 457.003C300.205 458.358 301.306 459.459 302.662 459.459C304.017 459.459 305.118 458.358 305.118 457.003C305.118 455.648 304.017 454.548 302.662 454.548Z" fill="#FFFFFF" fill-opacity="1.000000" fill-rule="nonzero"/>
	<path id="Vector" d="M333.705 468.753L313.292 550.365L306.854 550.365C306.558 550.365 306.283 550.344 305.986 550.322C301.116 549.878 297.008 545.771 295.97 540.923L280.173 467.906C297.792 478.555 313.292 461.322 313.292 461.322L333.705 468.753Z" fill="#66B0F0" fill-opacity="1.000000" fill-rule="nonzero"/>
	<path id="Vector" d="M334.743 510.629C339.041 487.934 340.227 470.596 332.815 469.198C325.404 467.801 312.212 482.853 307.913 505.548C303.615 528.242 305.859 548.312 313.271 549.709C320.682 551.128 330.444 533.345 334.743 510.629Z" fill="#FFFFFF" fill-opacity="1.000000" fill-rule="nonzero"/>
	<path id="Vector" d="M314.118 550.429C313.8 550.429 313.461 550.408 313.144 550.345C309.29 549.625 306.601 544.417 305.563 535.694C304.568 527.29 305.182 516.535 307.278 505.441C309.269 494.963 313.313 485.203 318.671 477.963C323.583 471.336 328.919 467.822 332.922 468.584C336.776 469.304 338.682 473.665 338.788 481.922C338.872 488.653 337.75 498.074 335.357 510.756C333.663 519.689 331.101 528.094 327.946 535.06C324.833 541.939 321.423 546.767 318.099 549.032C316.744 549.942 315.41 550.429 314.118 550.429ZM331.821 469.748C328.433 469.748 323.88 473.094 319.708 478.725C314.457 485.817 310.497 495.386 308.528 505.675C306.453 516.662 305.838 527.269 306.812 535.546C307.765 543.549 310.158 548.481 313.377 549.096C314.605 549.328 315.96 548.947 317.4 547.974C323.901 543.549 330.783 528.158 334.108 510.522C336.5 497.947 337.602 488.59 337.517 481.942C337.432 474.49 335.802 470.426 332.689 469.833C332.414 469.77 332.117 469.748 331.821 469.748Z" fill="#66B0F0" fill-opacity="1.000000" fill-rule="nonzero"/>
	<path id="Vector" d="M304.949 505.188C302.726 516.958 302.069 528.327 303.128 537.219C303.89 543.612 305.5 548.163 307.702 550.365L306.854 550.365C306.558 550.365 306.283 550.344 305.986 550.323C303.996 547.698 302.577 543.294 301.857 537.366C300.777 528.369 301.434 516.853 303.7 504.955C305.838 493.692 310.158 483.128 315.896 475.189C319.327 470.447 322.927 467.123 326.209 465.62L328.115 466.255C320.555 468.499 309.078 483.403 304.949 505.188Z" fill="#FFFFFF" fill-opacity="1.000000" fill-rule="nonzero"/>
	<path id="Vector" d="M287.924 294.881L384.527 284.931L481.087 312.008L480.261 324.837C478.949 345.076 461.5 360.826 441.214 360.826L321 360.826L287.924 294.881Z" fill="#FE5244" fill-opacity="1.000000" fill-rule="nonzero"/>
	<path id="Vector" d="M436.958 352.57L316.744 352.57C316.384 352.57 316.108 352.295 316.108 351.936C316.108 351.575 316.384 351.301 316.744 351.301L436.958 351.301C446.147 351.301 455.782 346.452 463.406 337.963C470.626 329.918 474.946 319.862 474.946 311.076C474.946 310.717 475.222 310.441 475.582 310.441C475.941 310.441 476.217 310.717 476.217 311.076C476.217 320.18 471.77 330.554 464.358 338.831C456.481 347.553 446.507 352.57 436.958 352.57Z" fill="#FFFFFF" fill-opacity="1.000000" fill-rule="nonzero"/>
	<path id="Vector" d="M427.492 341.984L311.874 341.984C311.514 341.984 311.238 341.71 311.238 341.35C311.238 340.99 311.514 340.715 311.874 340.715L427.492 340.715C435.518 340.715 443.818 336.946 450.828 330.087C457.413 323.651 462.029 315.353 463.491 307.308C463.554 306.969 463.893 306.736 464.232 306.8C464.57 306.863 464.804 307.202 464.74 307.54C461.754 323.82 445.724 341.984 427.492 341.984Z" fill="#FFFFFF" fill-opacity="1.000000" fill-rule="nonzero"/>
	<path id="Vector" d="M417.307 331.188L305.732 331.188C305.373 331.188 305.097 330.913 305.097 330.554C305.097 330.193 305.373 329.918 305.732 329.918L417.307 329.918C432.553 329.918 445.788 316.2 450.51 303.307C450.637 302.969 450.997 302.799 451.314 302.926C451.653 303.053 451.823 303.413 451.695 303.73C449.07 310.907 444.327 317.66 438.312 322.741C431.77 328.267 424.506 331.188 417.307 331.188Z" fill="#FFFFFF" fill-opacity="1.000000" fill-rule="nonzero"/>
	<path id="Vector" d="M411.801 319.544L300.227 319.544C299.867 319.544 299.592 319.269 299.592 318.909C299.592 318.549 299.867 318.274 300.227 318.274L411.801 318.274C422.304 318.274 433.315 311.436 440.558 300.448C440.748 300.152 441.15 300.067 441.447 300.258C441.743 300.448 441.828 300.851 441.637 301.147C434.141 312.494 422.728 319.544 411.801 319.544Z" fill="#FFFFFF" fill-opacity="1.000000" fill-rule="nonzero"/>
	<path id="Vector" d="M406.507 308.96L294.933 308.96C294.573 308.96 294.298 308.685 294.298 308.324C294.298 307.965 294.573 307.689 294.933 307.689L406.507 307.689C414.596 307.689 422.749 303.964 429.461 297.21C429.716 296.956 430.118 296.956 430.351 297.21C430.605 297.464 430.605 297.866 430.351 298.1C423.405 305.106 414.935 308.96 406.507 308.96Z" fill="#FFFFFF" fill-opacity="1.000000" fill-rule="nonzero"/>
	<path id="Vector" d="M400.79 298.163L289.216 298.163C288.856 298.163 288.581 297.888 288.581 297.527C288.581 297.168 288.856 296.893 289.216 296.893L400.79 296.893C405.554 296.893 410.34 295.538 415.041 292.892C415.337 292.722 415.74 292.828 415.909 293.124C416.079 293.421 415.973 293.823 415.676 293.992C410.785 296.766 405.766 298.163 400.79 298.163Z" fill="#FFFFFF" fill-opacity="1.000000" fill-rule="nonzero"/>
	<path id="Vector" d="M320.768 361.462C320.535 361.462 320.302 361.335 320.196 361.102L287.141 295.156C286.993 294.839 287.12 294.457 287.416 294.31C287.734 294.161 288.115 294.288 288.263 294.584L321.318 360.53C321.466 360.848 321.339 361.229 321.043 361.377C320.958 361.44 320.874 361.462 320.768 361.462Z" fill="#FFFFFF" fill-opacity="1.000000" fill-rule="nonzero"/>
	<path id="Vector" d="M486.381 223.643C477.276 226.226 468.318 225.463 467.366 222.689C466.476 220.044 470.5 215.513 478.652 212.507C479.054 212.358 479.478 212.211 479.901 212.062C482.358 211.236 484.814 210.707 487.122 210.433C493.962 209.564 499.531 210.792 500.23 212.867C501.183 215.641 496.016 220.911 486.381 223.643Z" fill="#FFFFFF" fill-opacity="1.000000" fill-rule="nonzero"/>
	<path id="Vector" d="M475.539 225.864C470.923 225.864 467.429 224.827 466.751 222.9C465.608 219.514 470.626 214.793 478.419 211.913C478.821 211.766 479.245 211.617 479.668 211.469L479.689 211.469C482.083 210.664 484.56 210.114 487.038 209.817C494.046 208.929 499.976 210.156 500.823 212.676C501.119 213.501 500.971 214.518 500.42 215.576C498.642 218.963 493.2 222.393 486.55 224.277C482.718 225.335 478.843 225.864 475.539 225.864ZM491.463 210.791C490.171 210.791 488.753 210.876 487.207 211.066C484.814 211.363 482.421 211.893 480.113 212.676C479.689 212.824 479.266 212.972 478.885 213.12C475.2 214.475 472.066 216.274 470.076 218.201C468.403 219.81 467.62 221.419 467.979 222.499C468.678 224.552 476.831 225.695 486.211 223.049C491.399 221.588 497.456 218.519 499.298 214.983C499.679 214.242 499.806 213.586 499.637 213.078C499.256 211.956 496.249 210.791 491.463 210.791Z" fill="#3FB1B5" fill-opacity="1.000000" fill-rule="nonzero"/>
	<path id="Vector" d="M480.621 285.374L477.127 285.374L467.958 223.493L467.958 223.451L467.725 221.905C468.17 219.09 472.574 215.11 480.346 212.527C484.221 211.235 488.075 210.664 491.357 210.601L494.703 219.768L495.021 220.636L505.608 249.66C511.961 266.999 499.107 285.374 480.621 285.374Z" fill="#A0505A" fill-opacity="1.000000" fill-rule="nonzero"/>
	<path id="Vector" d="M494.915 220.424C492.691 221.821 489.811 223.112 486.381 224.086C478.503 226.309 470.521 225.398 467.958 223.493L467.958 223.451L467.725 221.905C468.17 219.09 472.574 215.11 480.346 212.527C484.221 211.235 488.075 210.664 491.357 210.601L494.915 220.424Z" fill="#73325A" fill-opacity="1.000000" fill-rule="nonzero"/>
	<path id="Vector" d="M367.206 234.46L356.088 262.108C350.604 275.764 337.348 284.719 322.61 284.719L173.174 284.719L173.174 271.043C173.174 267.74 175.207 264.776 178.298 263.611L193.65 257.79C195.048 257.261 196.509 256.985 197.992 256.985L215.419 256.985L314.055 247.035L331.08 208.061L367.206 234.46Z" fill="#A0505A" fill-opacity="1.000000" fill-rule="nonzero"/>
	<path id="Vector" d="M173.809 276.822C173.449 276.822 173.174 276.547 173.174 276.188C173.174 273.414 174.847 270.979 177.451 269.984L189.034 265.602C189.352 265.475 189.733 265.645 189.86 265.962C189.987 266.279 189.818 266.66 189.5 266.787L177.917 271.17C175.821 271.975 174.444 273.943 174.444 276.188C174.444 276.547 174.169 276.822 173.809 276.822Z" fill="#73325A" fill-opacity="1.000000" fill-rule="nonzero"/>
	<path id="Vector" d="M173.809 283.808C173.449 283.808 173.174 283.532 173.174 283.173C173.174 280.399 174.847 277.965 177.451 276.97L189.034 272.587C189.352 272.46 189.733 272.63 189.86 272.947C189.987 273.265 189.818 273.646 189.5 273.772L177.917 278.155C175.821 278.96 174.444 280.929 174.444 283.173C174.444 283.532 174.169 283.808 173.809 283.808Z" fill="#73325A" fill-opacity="1.000000" fill-rule="nonzero"/>
	<path id="Vector" d="M177.684 284.719C177.43 284.719 177.176 284.55 177.091 284.296C176.964 283.957 177.133 283.597 177.472 283.491L189.055 279.32C189.394 279.193 189.754 279.363 189.86 279.701C189.987 280.04 189.817 280.4 189.479 280.506L177.896 284.677C177.832 284.698 177.748 284.719 177.684 284.719Z" fill="#73325A" fill-opacity="1.000000" fill-rule="nonzero"/>
	<path id="Vector" d="M188.06 260.14C188.06 260.14 198.902 232.47 202.375 232.936C205.848 233.401 192.761 258.361 192.761 258.361L188.06 260.14Z" fill="#FE5244" fill-opacity="1.000000" fill-rule="nonzero"/>
	<path id="Vector" d="M331.079 208.082L328.581 213.777L360.577 250.931L367.205 234.46L331.079 208.082Z" fill="#73325A" fill-opacity="1.000000" fill-rule="nonzero"/>
	<path id="Vector" d="M467.958 223.516L481.087 312.008L384.548 284.931L367.205 234.439L322.44 201.73L338.152 183.017C352.17 166.312 372.859 156.659 394.67 156.659L425.692 156.659C452.67 156.659 477.509 171.394 490.447 195.062L500.505 212.464C500.505 212.464 497.477 208.019 481.151 212.485C466.772 216.444 467.958 223.516 467.958 223.516Z" fill="#3FB1B5" fill-opacity="1.000000" fill-rule="nonzero"/>
	<path id="Vector" d="M367.205 234.672C367.163 234.672 367.099 234.672 367.057 234.65C366.718 234.565 366.506 234.227 366.591 233.889L371.609 212.125C371.694 211.786 372.033 211.574 372.372 211.659C372.711 211.744 372.922 212.083 372.838 212.422L367.819 234.185C367.755 234.481 367.501 234.672 367.205 234.672Z" fill="#FFFFFF" fill-opacity="1.000000" fill-rule="nonzero"/>
	<path id="Vector" d="M478.652 291.98C478.355 291.98 478.08 291.769 478.017 291.451L461.69 189.981C461.626 189.643 461.859 189.304 462.22 189.262C462.558 189.198 462.897 189.431 462.939 189.791L479.266 291.261C479.33 291.6 479.097 291.938 478.736 291.98C478.715 291.98 478.694 291.98 478.652 291.98Z" fill="#FFFFFF" fill-opacity="1.000000" fill-rule="nonzero"/>
	<path id="Vector" d="M480.875 312.642C480.812 312.642 480.77 312.642 480.706 312.621L384.357 285.142C384.019 285.035 383.828 284.697 383.913 284.358C384.019 284.02 384.357 283.829 384.696 283.914L481.045 311.393C481.384 311.499 481.574 311.837 481.49 312.176C481.405 312.451 481.151 312.642 480.875 312.642Z" fill="#FFFFFF" fill-opacity="1.000000" fill-rule="nonzero"/>
	<path id="NECK" d="M389.736 142.518L389.736 156.743L414.85 156.532L414.85 131.424L389.736 142.518Z" fill="#A0505A" fill-opacity="1.000000" fill-rule="nonzero"/>
	<path id="Vector" d="M416.883 127.041L416.883 127.422C416.883 131.233 414.003 134.324 410.192 134.324L408.709 134.324C407.756 138.092 399.286 142.496 393.272 142.496L386.263 142.496C378.598 142.496 372.732 135.615 373.981 128.036L374.32 125.982L372.245 124.818C371.059 124.141 370.72 122.596 371.546 121.495L376.036 115.567L377.01 109.724C377.793 104.918 380.948 101.002 385.141 99.0752C386.792 117.684 403.225 119.886 407.566 120.14L409.98 120.14C413.792 120.14 416.883 123.23 416.883 127.041Z" fill="#A0505A" fill-opacity="1.000000" fill-rule="nonzero"/>
	<path id="Vector" d="M405.766 129.497C405.406 129.497 405.131 129.222 405.131 128.862C405.131 125.518 407.863 122.786 411.208 122.786C411.568 122.786 411.844 123.062 411.844 123.421C411.844 123.781 411.568 124.057 411.208 124.057C408.562 124.057 406.401 126.216 406.401 128.862C406.401 129.222 406.126 129.497 405.766 129.497Z" fill="#73325A" fill-opacity="1.000000" fill-rule="nonzero"/>
	<path id="Vector" d="M383.892 117.832C383.892 119.212 383.408 120.33 382.812 120.33C382.215 120.33 381.731 119.212 381.731 117.832C381.731 116.452 382.215 115.334 382.812 115.334C383.408 115.334 383.892 116.452 383.892 117.832Z" fill="#73325A" fill-opacity="1.000000" fill-rule="evenodd"/>
	<path id="Vector" d="M387.216 114.678C387.025 114.678 386.835 114.594 386.708 114.424C383.892 110.528 381.266 110.74 381.224 110.74C380.863 110.782 380.567 110.528 380.524 110.169C380.482 109.83 380.736 109.513 381.096 109.47C381.224 109.449 384.484 109.195 387.724 113.662C387.936 113.938 387.873 114.339 387.576 114.551C387.47 114.636 387.343 114.678 387.216 114.678Z" fill="#73325A" fill-opacity="1.000000" fill-rule="nonzero"/>
	<path id="Vector" d="M407.566 120.14L409.98 120.14C413.792 120.14 416.883 123.231 416.883 127.042L416.883 127.423C416.883 131.233 414.003 134.324 410.192 134.324L408.562 135.468C401.7 139.871 392.214 157.188 394.543 169.446C397.169 183.228 409.175 186.298 420.271 184.181C431.367 182.063 439.457 175.606 436.831 161.804C436.534 160.173 436.047 158.543 435.433 156.935C435.624 156.998 435.793 157.062 435.984 157.125C449.324 160.766 464.994 161.189 469.314 150.773C473.634 140.357 472.66 130.048 459.679 124.671C452.141 121.537 441.892 121.559 433.951 123.718C437.953 109.809 430.838 94.333 417.773 92.7881C397.253 90.3535 385.48 98.8213 385.162 99.0547C385.141 101.51 386.814 118.934 407.566 120.14Z" fill="#73325A" fill-opacity="1.000000" fill-rule="nonzero"/>
	<path id="Vector" d="M435.983 157.781C435.687 157.781 435.412 157.569 435.37 157.273C433.125 145.523 423.511 139.045 423.405 138.981C423.236 138.876 423.13 138.664 423.13 138.452C423.13 138.241 423.236 138.051 423.405 137.924C429.97 133.287 432.807 126.598 433.908 123.041C434.014 122.702 434.374 122.512 434.692 122.617C435.031 122.723 435.221 123.083 435.115 123.4C434.014 126.999 431.219 133.604 424.845 138.432C427.238 140.23 434.628 146.54 436.619 157.02C436.683 157.357 436.449 157.696 436.111 157.76C436.068 157.781 436.026 157.781 435.983 157.781Z" fill="#FFFFFF" fill-opacity="1.000000" fill-rule="nonzero"/>
	<path id="Vector" d="M440.24 123.4L434.628 123.4C434.269 123.4 433.993 123.125 433.993 122.765L433.993 117.155C433.993 113.873 436.661 111.206 439.943 111.206L440.24 111.206C443.522 111.206 446.19 113.873 446.19 117.155L446.19 117.451C446.211 119.018 445.598 120.521 444.475 121.644C443.353 122.765 441.85 123.4 440.24 123.4ZM435.264 122.13L440.24 122.13C441.511 122.13 442.675 121.643 443.564 120.732C444.433 119.844 444.92 118.68 444.92 117.451L444.92 117.155C444.92 114.572 442.823 112.477 440.24 112.477L439.943 112.477C437.36 112.477 435.264 114.572 435.264 117.155L435.264 122.13Z" fill="#FE5244" fill-opacity="1.000000" fill-rule="nonzero"/>
	<path id="Vector" d="M443.374 131.995C441.108 131.995 438.927 130.895 437.635 128.862L434.035 123.146C433.845 122.85 433.93 122.447 434.226 122.278L439.943 118.679C441.468 117.727 443.289 117.409 445.047 117.812C446.804 118.213 448.308 119.271 449.282 120.796L449.621 121.325C450.595 122.85 450.891 124.67 450.489 126.428C450.086 128.185 449.028 129.688 447.503 130.661L446.974 131C445.873 131.656 444.623 131.995 443.374 131.995ZM435.454 122.998L438.715 128.185C440.325 130.725 443.734 131.487 446.317 129.878L446.847 129.539C448.096 128.756 448.943 127.55 449.261 126.11C449.578 124.67 449.324 123.21 448.541 121.961L448.202 121.432C447.418 120.183 446.211 119.335 444.771 119.018C443.332 118.7 441.87 118.954 440.621 119.737L435.454 122.998Z" fill="#FE5244" fill-opacity="1.000000" fill-rule="nonzero"/>
	<path id="Vector" d="M408.688 148.932C408.54 148.932 408.392 148.932 408.243 148.91C406.655 148.783 405.215 148.063 404.177 146.856L403.987 146.624C402.949 145.438 402.441 143.914 402.547 142.348C402.653 140.76 403.373 139.299 404.58 138.262L408.561 134.451C408.688 134.323 408.857 134.26 409.027 134.281C409.196 134.281 409.365 134.366 409.471 134.493L413.389 138.918C414.426 140.124 414.956 141.67 414.829 143.258C414.702 144.846 413.982 146.285 412.775 147.322L412.521 147.513C411.483 148.423 410.128 148.932 408.688 148.932ZM408.984 135.806L405.469 139.172L405.448 139.193C404.495 140.019 403.923 141.162 403.839 142.432C403.754 143.681 404.156 144.866 404.961 145.798C404.961 145.798 404.961 145.819 404.982 145.819L405.173 146.052C405.978 146.983 407.1 147.556 408.349 147.661C409.599 147.746 410.805 147.344 411.758 146.539L412.012 146.327C412.944 145.522 413.516 144.4 413.622 143.151C413.707 141.902 413.304 140.696 412.5 139.743L408.984 135.806Z" fill="#FE5244" fill-opacity="1.000000" fill-rule="nonzero"/>
	<path id="Vector" d="M416.798 146.603C413.833 146.603 411.102 144.634 410.255 141.649L408.455 135.149C408.371 134.811 408.561 134.472 408.9 134.366L415.401 132.566C417.137 132.08 418.958 132.312 420.525 133.181C422.092 134.07 423.236 135.51 423.723 137.245L423.892 137.859C424.379 139.596 424.146 141.416 423.278 142.982C422.389 144.549 420.949 145.692 419.212 146.18L418.598 146.349C417.984 146.539 417.391 146.603 416.798 146.603ZM411.483 141.311C412.309 144.211 415.337 145.946 418.238 145.142L418.852 144.973C420.271 144.57 421.436 143.66 422.156 142.39C422.875 141.12 423.045 139.638 422.664 138.22L422.495 137.605C422.092 136.187 421.182 135.022 419.911 134.303C418.641 133.583 417.158 133.414 415.739 133.795L409.853 135.425L411.483 141.311Z" fill="#FE5244" fill-opacity="1.000000" fill-rule="nonzero"/>
	<path id="Vector" d="M316.193 550.344C316.151 550.344 316.108 550.344 316.066 550.323C315.727 550.26 315.494 549.921 315.579 549.561L352.467 376.958C352.53 376.62 352.869 376.387 353.229 376.472C353.568 376.535 353.801 376.874 353.716 377.233L316.807 549.836C316.744 550.133 316.49 550.344 316.193 550.344Z" fill="#FFCF2D" fill-opacity="1.000000" fill-rule="nonzero"/>
	<path id="Vector" d="M484.369 550.344C484.073 550.344 483.818 550.132 483.755 549.836L446.867 377.233C446.804 376.895 447.016 376.556 447.354 376.472C447.693 376.407 448.032 376.619 448.117 376.958L485.004 549.561C485.068 549.899 484.856 550.238 484.517 550.322C484.454 550.344 484.412 550.344 484.369 550.344Z" fill="#FFCF2D" fill-opacity="1.000000" fill-rule="nonzero"/>
	<path id="Vector" d="M475.688 512.025L324.367 512.025C324.007 512.025 323.732 511.75 323.732 511.39C323.732 511.03 324.007 510.755 324.367 510.755L475.688 510.755C476.048 510.755 476.323 511.03 476.323 511.39C476.323 511.75 476.048 512.025 475.688 512.025Z" fill="#FFCF2D" fill-opacity="1.000000" fill-rule="nonzero"/>
	<path id="Vector" d="M476.513 377.106L324.028 377.106C322.101 377.106 320.534 375.54 320.534 373.613L320.534 364.319C320.534 362.393 322.101 360.826 324.028 360.826L476.513 360.826C478.44 360.826 480.007 362.393 480.007 364.319L480.007 373.613C480.007 375.54 478.44 377.106 476.513 377.106Z" fill="#FFFFFF" fill-opacity="1.000000" fill-rule="nonzero"/>
	<path id="Vector" d="M476.513 377.742L324.028 377.742C321.741 377.742 319.898 375.9 319.898 373.613L319.898 364.319C319.898 362.033 321.741 360.191 324.028 360.191L476.513 360.191C478.8 360.191 480.642 362.033 480.642 364.319L480.642 373.613C480.642 375.9 478.8 377.742 476.513 377.742ZM324.028 361.462C322.46 361.462 321.169 362.753 321.169 364.319L321.169 373.613C321.169 375.18 322.46 376.472 324.028 376.472L476.513 376.472C478.08 376.472 479.372 375.18 479.372 373.613L479.372 364.319C479.372 362.753 478.08 361.462 476.513 361.462L324.028 361.462Z" fill="#66B0F0" fill-opacity="1.000000" fill-rule="nonzero"/>
</svg>
